<svg width="165" height="165" viewBox="0 0 165 165" fill="none" xmlns="http://www.w3.org/2000/svg">
<rect x="4.48267" y="4.48251" width="157" height="157" rx="25.5" fill="#D9D9D9" stroke="black" stroke-width="7"/>
<path d="M59.9827 7.98251V5.98251H57.9827H29.9827C16.7278 5.98251 5.98267 16.7277 5.98267 29.9825V57.9825V59.9825H7.98267H57.9827H59.9827V57.9825V7.98251Z" fill="white" stroke="black" stroke-width="4"/>
<path d="M107.983 5.98251H105.983V7.98251V57.9825V59.9825H107.983H157.983H159.983V57.9825V29.9825C159.983 16.7277 149.237 5.98251 135.983 5.98251H107.983Z" fill="white" stroke="black" stroke-width="4"/>
<rect x="55.9827" y="5.98251" width="54" height="54" fill="white" stroke="black" stroke-width="4"/>
<path d="M7.98267 105.982H5.98267V107.982V135.982C5.98267 149.237 16.7278 159.982 29.9827 159.982H57.9827H59.9827V157.982V107.982V105.982H57.9827H7.98267Z" fill="#58BE56" stroke="black" stroke-width="4"/>
<path d="M107.983 105.982H105.983V107.982V157.982V159.982H107.983H135.983C149.237 159.982 159.983 149.237 159.983 135.982V107.982V105.982H157.983H107.983Z" fill="#58BE56" stroke="black" stroke-width="4"/>
<rect x="55.9827" y="105.982" width="54" height="54" fill="#58BE56" stroke="black" stroke-width="4"/>
<mask id="path-8-outside-1_8_90" maskUnits="userSpaceOnUse" x="3.98267" y="54.9825" width="58" height="57" fill="black">
<rect fill="white" x="3.98267" y="54.9825" width="58" height="57"/>
<path d="M7.98267 57.9825H57.9827V107.983H7.98267V57.9825Z"/>
</mask>
<path d="M7.98267 57.9825H57.9827V107.983H7.98267V57.9825Z" fill="white"/>
<path d="M7.98267 57.9825V54.9825H3.98267V57.9825H7.98267ZM57.9827 57.9825H61.9827V54.9825H57.9827V57.9825ZM57.9827 107.983V111.983H61.9827V107.983H57.9827ZM7.98267 107.983H3.98267V111.983H7.98267V107.983ZM7.98267 60.9825H57.9827V54.9825H7.98267V60.9825ZM53.9827 57.9825V107.983H61.9827V57.9825H53.9827ZM57.9827 103.983H7.98267V111.983H57.9827V103.983ZM11.9827 107.983V57.9825H3.98267V107.983H11.9827Z" fill="black" mask="url(#path-8-outside-1_8_90)"/>
<mask id="path-10-outside-2_8_90" maskUnits="userSpaceOnUse" x="103.983" y="54.9825" width="58" height="57" fill="black">
<rect fill="white" x="103.983" y="54.9825" width="58" height="57"/>
<path d="M107.983 57.9825H157.983V107.983H107.983V57.9825Z"/>
</mask>
<path d="M107.983 57.9825H157.983V107.983H107.983V57.9825Z" fill="#58BE56"/>
<path d="M107.983 57.9825V54.9825H103.983V57.9825H107.983ZM157.983 57.9825H161.983V54.9825H157.983V57.9825ZM157.983 107.983V111.983H161.983V107.983H157.983ZM107.983 107.983H103.983V111.983H107.983V107.983ZM107.983 60.9825H157.983V54.9825H107.983V60.9825ZM153.983 57.9825V107.983H161.983V57.9825H153.983ZM157.983 103.983H107.983V111.983H157.983V103.983ZM111.983 107.983V57.9825H103.983V107.983H111.983Z" fill="black" mask="url(#path-10-outside-2_8_90)"/>
<mask id="path-12-outside-3_8_90" maskUnits="userSpaceOnUse" x="53.9827" y="54.9825" width="58" height="57" fill="black">
<rect fill="white" x="53.9827" y="54.9825" width="58" height="57"/>
<path d="M57.9827 57.9825H107.983V107.983H57.9827V57.9825Z"/>
</mask>
<path d="M57.9827 57.9825H107.983V107.983H57.9827V57.9825Z" fill="#FFE600"/>
<path d="M57.9827 57.9825V54.9825H53.9827V57.9825H57.9827ZM107.983 57.9825H111.983V54.9825H107.983V57.9825ZM107.983 107.983V111.983H111.983V107.983H107.983ZM57.9827 107.983H53.9827V111.983H57.9827V107.983ZM57.9827 60.9825H107.983V54.9825H57.9827V60.9825ZM103.983 57.9825V107.983H111.983V57.9825H103.983ZM107.983 103.983H57.9827V111.983H107.983V103.983ZM61.9827 107.983V57.9825H53.9827V107.983H61.9827Z" fill="black" mask="url(#path-12-outside-3_8_90)"/>
</svg>
