<svg width="765" height="126" viewBox="0 0 765 126" fill="none" xmlns="http://www.w3.org/2000/svg">
<g filter="url(#filter0_d_2_70)">
<path d="M90 0H25C11.1929 0 0 11.1479 0 24.8996V89.6386C0 103.39 11.1929 114.538 25 114.538H90C103.807 114.538 115 103.39 115 89.6386V24.8996C115 11.1479 103.807 0 90 0Z" fill="#E68225"/>
<path d="M49.12 43.3773C49.824 43.0586 50.912 42.708 52.384 42.3255C53.92 41.8793 55.456 41.6562 56.992 41.6562C59.68 41.6562 61.92 42.0705 63.712 42.8992C65.504 43.6641 66.592 44.8115 66.976 46.3413C67.68 48.9548 68.32 51.4089 68.896 53.7036C69.536 55.9346 70.144 58.1019 70.72 60.2054C71.296 62.2452 71.84 64.285 72.352 66.3247C72.928 68.3645 73.472 70.4999 73.984 72.7309H74.464C75.04 68.8426 75.552 65.1455 76 61.6396C76.448 58.07 76.864 54.596 77.248 51.2177C77.632 47.7755 78.016 44.3972 78.4 41.0825C78.784 37.7041 79.168 34.2939 79.552 30.8518C81.92 29.5132 84.448 28.8439 87.136 28.8439C89.504 28.8439 91.552 29.3538 93.28 30.3737C95.008 31.3936 95.872 33.1147 95.872 35.5369C95.872 36.9392 95.712 38.9471 95.392 41.5606C95.136 44.1103 94.752 46.9787 94.24 50.1659C93.792 53.353 93.248 56.6996 92.608 60.2054C91.968 63.7113 91.296 67.0578 90.592 70.2449C89.888 73.4321 89.152 76.3324 88.384 78.9458C87.68 81.4956 87.008 83.4716 86.368 84.8739C85.408 85.7663 83.84 86.4994 81.664 87.0731C79.488 87.6468 77.248 87.9336 74.944 87.9336C71.936 87.9336 69.376 87.5511 67.264 86.7862C65.216 85.9576 63.968 84.8102 63.52 83.3441C62.688 80.7944 61.792 77.7666 60.832 74.2607C59.872 70.7549 58.848 66.8984 57.76 62.6914C56.864 66.8347 55.936 70.8824 54.976 74.8344C54.016 78.7865 53.152 82.133 52.384 84.8739C51.424 85.7663 49.984 86.4994 48.064 87.0731C46.144 87.6468 44.032 87.9336 41.728 87.9336C38.848 87.9336 36.224 87.5511 33.856 86.7862C31.552 85.9576 30.048 84.8102 29.344 83.3441C28.768 82.1967 28.128 80.5075 27.424 78.2765C26.784 75.9818 26.112 73.4002 25.408 70.5318C24.704 67.5996 23.968 64.4443 23.2 61.0659C22.496 57.6876 21.824 54.3092 21.184 50.9308C20.608 47.5524 20.064 44.2697 19.552 41.0825C19.04 37.8316 18.656 34.8676 18.4 32.1904C19.296 31.3617 20.544 30.5968 22.144 29.8956C23.744 29.1945 25.472 28.8439 27.328 28.8439C29.76 28.8439 31.744 29.3857 33.28 30.4693C34.88 31.4892 35.872 33.2421 36.256 35.7281C37.28 42.2299 38.112 47.648 38.752 51.9826C39.456 56.3171 40 59.8867 40.384 62.6914C40.832 65.4323 41.152 67.5677 41.344 69.0976C41.536 70.6274 41.728 71.8385 41.92 72.7309H42.4C42.976 70.1812 43.52 67.8227 44.032 65.6554C44.544 63.4882 45.056 61.3209 45.568 59.1537C46.144 56.9227 46.72 54.5642 47.296 52.0782C47.872 49.5285 48.48 46.6282 49.12 43.3773Z" fill="white"/>
</g>
<g filter="url(#filter1_d_2_70)">
<path d="M220 0H155C141.193 0 130 11.1479 130 24.8996V89.6386C130 103.39 141.193 114.538 155 114.538H220C233.807 114.538 245 103.39 245 89.6386V24.8996C245 11.1479 233.807 0 220 0Z" fill="#E68225"/>
<path d="M157.11 58.1019C157.11 53.1299 157.878 48.7317 159.414 44.9071C161.014 41.0825 163.158 37.8954 165.846 35.3456C168.598 32.7322 171.798 30.7561 175.446 29.4175C179.158 28.0789 183.158 27.4096 187.446 27.4096C191.734 27.4096 195.702 28.0789 199.35 29.4175C203.062 30.7561 206.294 32.7322 209.046 35.3456C211.798 37.8954 213.942 41.0825 215.478 44.9071C217.078 48.7317 217.878 53.1299 217.878 58.1019C217.878 63.0738 217.11 67.504 215.574 71.3923C214.038 75.2169 211.894 78.4359 209.142 81.0494C206.454 83.5991 203.254 85.5432 199.542 86.8818C195.83 88.2204 191.798 88.8897 187.446 88.8897C183.094 88.8897 179.062 88.2204 175.35 86.8818C171.638 85.4795 168.438 83.4716 165.75 80.8581C163.062 78.2447 160.95 75.0256 159.414 71.2011C157.878 67.3765 157.11 63.0101 157.11 58.1019ZM174.39 58.1019C174.39 63.9025 175.574 68.237 177.942 71.1054C180.31 73.9739 183.478 75.4081 187.446 75.4081C191.478 75.4081 194.678 73.9739 197.046 71.1054C199.414 68.237 200.598 63.9025 200.598 58.1019C200.598 52.365 199.414 48.0624 197.046 45.1939C194.742 42.3255 191.574 40.8913 187.542 40.8913C183.574 40.8913 180.374 42.3255 177.942 45.1939C175.574 47.9986 174.39 52.3013 174.39 58.1019Z" fill="white"/>
</g>
<g filter="url(#filter2_d_2_70)">
<path d="M350 0H285C271.193 0 260 11.1479 260 24.8996V89.6386C260 103.39 271.193 114.538 285 114.538H350C363.807 114.538 375 103.39 375 89.6386V24.8996C375 11.1479 363.807 0 350 0Z" fill="#E68225"/>
<path d="M311.194 68.4282V86.7862C310.49 86.9774 309.37 87.1687 307.834 87.3599C306.362 87.5511 304.89 87.6467 303.418 87.6467C301.946 87.6467 300.634 87.5193 299.482 87.2643C298.394 87.0731 297.466 86.6906 296.698 86.1169C295.994 85.5432 295.45 84.7464 295.066 83.7265C294.682 82.7067 294.49 81.3681 294.49 79.7107V34.6763C294.49 33.3377 294.842 32.3178 295.546 31.6167C296.314 30.8518 297.338 30.2462 298.618 29.8C300.794 29.0351 303.322 28.4933 306.202 28.1745C309.082 27.7921 312.154 27.6009 315.418 27.6009C324.25 27.6009 330.906 29.4494 335.386 33.1465C339.866 36.8436 342.106 41.8474 342.106 48.158C342.106 52.11 341.082 55.4884 339.034 58.2931C336.986 61.0978 334.554 63.2651 331.738 64.7949C334.042 67.9183 336.314 70.8505 338.554 73.5914C340.794 76.3324 342.554 78.8183 343.834 81.0493C343.194 83.2803 342.01 85.0014 340.282 86.2125C338.618 87.3599 336.73 87.9336 334.618 87.9336C333.21 87.9336 331.994 87.7742 330.97 87.4555C329.946 87.1368 329.05 86.6906 328.282 86.1169C327.514 85.5432 326.81 84.842 326.17 84.0134C325.53 83.1847 324.922 82.2923 324.346 81.3362L316.282 68.4282H311.194ZM317.242 55.7115C319.674 55.7115 321.594 55.106 323.002 53.8948C324.41 52.62 325.114 50.7714 325.114 48.3492C325.114 45.927 324.314 44.1103 322.714 42.8992C321.178 41.6243 318.714 40.9869 315.322 40.9869C314.362 40.9869 313.594 41.0188 313.018 41.0825C312.442 41.1462 311.802 41.2419 311.098 41.3693V55.7115H317.242Z" fill="white"/>
</g>
<g filter="url(#filter3_d_2_70)">
<path d="M480 0H415C401.193 0 390 11.1479 390 24.8996V89.6386C390 103.39 401.193 114.538 415 114.538H480C493.807 114.538 505 103.39 505 89.6386V24.8996C505 11.1479 493.807 0 480 0Z" fill="#E68225"/>
<path d="M438.444 74.7388C439.148 74.8663 440.012 74.9938 441.036 75.1212C442.06 75.185 443.02 75.2169 443.916 75.2169C446.092 75.2169 448.076 74.8981 449.868 74.2607C451.724 73.6233 453.292 72.6353 454.572 71.2967C455.916 69.9581 456.94 68.237 457.644 66.1335C458.412 63.9662 458.796 61.3846 458.796 58.3887C458.796 52.6518 457.452 48.3492 454.764 45.4808C452.076 42.5486 448.492 41.0825 444.012 41.0825C443.116 41.0825 442.188 41.1144 441.228 41.1781C440.332 41.2419 439.404 41.3375 438.444 41.465V74.7388ZM443.82 88.6985C442.732 88.6985 441.484 88.6666 440.076 88.6029C438.668 88.5391 437.196 88.4117 435.66 88.2204C434.188 88.0292 432.684 87.7742 431.148 87.4555C429.676 87.2005 428.3 86.8181 427.02 86.3081C423.5 84.9695 421.74 82.6429 421.74 79.3283V34.6763C421.74 33.3377 422.092 32.3178 422.796 31.6167C423.564 30.8518 424.588 30.2462 425.868 29.8C428.62 28.9076 431.532 28.3339 434.604 28.0789C437.676 27.7602 440.428 27.6009 442.86 27.6009C447.852 27.6009 452.364 28.2064 456.396 29.4175C460.492 30.6287 463.98 32.5091 466.86 35.0588C469.804 37.5448 472.076 40.7 473.676 44.5246C475.276 48.3492 476.076 52.875 476.076 58.1019C476.076 63.2013 475.308 67.6633 473.772 71.4879C472.236 75.2487 470.028 78.4359 467.148 81.0493C464.332 83.5991 460.94 85.5113 456.972 86.7862C453.004 88.0611 448.62 88.6985 443.82 88.6985Z" fill="white"/>
</g>
<g filter="url(#filter4_d_2_70)">
<path d="M610 0H545C531.193 0 520 11.1479 520 24.8996V89.6386C520 103.39 531.193 114.538 545 114.538H610C623.807 114.538 635 103.39 635 89.6386V24.8996C635 11.1479 623.807 0 610 0Z" fill="#E68225"/>
<path d="M567.92 87.4555C565.165 87.4555 562.99 86.6587 561.39 85.0652C559.79 83.4716 558.99 81.3043 558.99 78.5634V29.1307C559.695 29.0032 560.815 28.8439 562.35 28.6526C563.885 28.3977 565.36 28.2702 566.765 28.2702C568.24 28.2702 569.52 28.3977 570.605 28.6526C571.76 28.8439 572.72 29.2263 573.485 29.8C574.255 30.3737 574.83 31.1705 575.215 32.1904C575.6 33.2103 575.79 34.5489 575.79 36.2062V73.9739H597.775C598.22 74.6751 598.64 75.6312 599.02 76.8423C599.405 77.9897 599.6 79.2008 599.6 80.4757C599.6 83.0254 599.055 84.8421 597.965 85.9257C596.88 86.9456 595.44 87.4555 593.645 87.4555H567.92Z" fill="white"/>
</g>
<g filter="url(#filter5_d_2_70)">
<path d="M740 0H675C661.193 0 650 11.1479 650 24.8996V89.6386C650 103.39 661.193 114.538 675 114.538H740C753.807 114.538 765 103.39 765 89.6386V24.8996C765 11.1479 753.807 0 740 0Z" fill="#E68225"/>
<path d="M687.24 38.1185C687.24 35.3775 688.04 33.2103 689.64 31.6167C691.24 30.0231 693.415 29.2263 696.17 29.2263H727.85C728.295 29.9275 728.68 30.8518 729 31.9991C729.385 33.1465 729.575 34.3576 729.575 35.6325C729.575 38.0547 729.03 39.7758 727.945 40.7957C726.92 41.8156 725.545 42.3255 723.815 42.3255H703.56V51.2176H725.16C725.61 51.9188 725.99 52.8431 726.31 53.9905C726.695 55.0741 726.89 56.2533 726.89 57.5282C726.89 59.9504 726.375 61.6715 725.35 62.6914C724.33 63.7113 722.95 64.2212 721.225 64.2212H703.56V74.2607H728.23C728.68 74.9619 729.065 75.8862 729.385 77.0335C729.77 78.1809 729.96 79.392 729.96 80.6669C729.96 83.0891 729.415 84.8421 728.33 85.9257C727.305 86.9456 725.93 87.4555 724.2 87.4555H696.17C693.415 87.4555 691.24 86.6587 689.64 85.0652C688.04 83.4716 687.24 81.3043 687.24 78.5634V38.1185Z" fill="white"/>
</g>
<defs>
<filter id="filter0_d_2_70" x="0" y="0" width="115" height="125.538" filterUnits="userSpaceOnUse" color-interpolation-filters="sRGB">
<feFlood flood-opacity="0" result="BackgroundImageFix"/>
<feColorMatrix in="SourceAlpha" type="matrix" values="0 0 0 0 0 0 0 0 0 0 0 0 0 0 0 0 0 0 127 0" result="hardAlpha"/>
<feOffset dy="11"/>
<feComposite in2="hardAlpha" operator="out"/>
<feColorMatrix type="matrix" values="0 0 0 0 0.538272 0 0 0 0 0.291358 0 0 0 0 0.0617284 0 0 0 1 0"/>
<feBlend mode="normal" in2="BackgroundImageFix" result="effect1_dropShadow_2_70"/>
<feBlend mode="normal" in="SourceGraphic" in2="effect1_dropShadow_2_70" result="shape"/>
</filter>
<filter id="filter1_d_2_70" x="130" y="0" width="115" height="125.538" filterUnits="userSpaceOnUse" color-interpolation-filters="sRGB">
<feFlood flood-opacity="0" result="BackgroundImageFix"/>
<feColorMatrix in="SourceAlpha" type="matrix" values="0 0 0 0 0 0 0 0 0 0 0 0 0 0 0 0 0 0 127 0" result="hardAlpha"/>
<feOffset dy="11"/>
<feComposite in2="hardAlpha" operator="out"/>
<feColorMatrix type="matrix" values="0 0 0 0 0.538272 0 0 0 0 0.291358 0 0 0 0 0.0617284 0 0 0 1 0"/>
<feBlend mode="normal" in2="BackgroundImageFix" result="effect1_dropShadow_2_70"/>
<feBlend mode="normal" in="SourceGraphic" in2="effect1_dropShadow_2_70" result="shape"/>
</filter>
<filter id="filter2_d_2_70" x="260" y="0" width="115" height="125.538" filterUnits="userSpaceOnUse" color-interpolation-filters="sRGB">
<feFlood flood-opacity="0" result="BackgroundImageFix"/>
<feColorMatrix in="SourceAlpha" type="matrix" values="0 0 0 0 0 0 0 0 0 0 0 0 0 0 0 0 0 0 127 0" result="hardAlpha"/>
<feOffset dy="11"/>
<feComposite in2="hardAlpha" operator="out"/>
<feColorMatrix type="matrix" values="0 0 0 0 0.538272 0 0 0 0 0.291358 0 0 0 0 0.0617284 0 0 0 1 0"/>
<feBlend mode="normal" in2="BackgroundImageFix" result="effect1_dropShadow_2_70"/>
<feBlend mode="normal" in="SourceGraphic" in2="effect1_dropShadow_2_70" result="shape"/>
</filter>
<filter id="filter3_d_2_70" x="390" y="0" width="115" height="125.538" filterUnits="userSpaceOnUse" color-interpolation-filters="sRGB">
<feFlood flood-opacity="0" result="BackgroundImageFix"/>
<feColorMatrix in="SourceAlpha" type="matrix" values="0 0 0 0 0 0 0 0 0 0 0 0 0 0 0 0 0 0 127 0" result="hardAlpha"/>
<feOffset dy="11"/>
<feComposite in2="hardAlpha" operator="out"/>
<feColorMatrix type="matrix" values="0 0 0 0 0.538272 0 0 0 0 0.291358 0 0 0 0 0.0617284 0 0 0 1 0"/>
<feBlend mode="normal" in2="BackgroundImageFix" result="effect1_dropShadow_2_70"/>
<feBlend mode="normal" in="SourceGraphic" in2="effect1_dropShadow_2_70" result="shape"/>
</filter>
<filter id="filter4_d_2_70" x="520" y="0" width="115" height="125.538" filterUnits="userSpaceOnUse" color-interpolation-filters="sRGB">
<feFlood flood-opacity="0" result="BackgroundImageFix"/>
<feColorMatrix in="SourceAlpha" type="matrix" values="0 0 0 0 0 0 0 0 0 0 0 0 0 0 0 0 0 0 127 0" result="hardAlpha"/>
<feOffset dy="11"/>
<feComposite in2="hardAlpha" operator="out"/>
<feColorMatrix type="matrix" values="0 0 0 0 0.538272 0 0 0 0 0.291358 0 0 0 0 0.0617284 0 0 0 1 0"/>
<feBlend mode="normal" in2="BackgroundImageFix" result="effect1_dropShadow_2_70"/>
<feBlend mode="normal" in="SourceGraphic" in2="effect1_dropShadow_2_70" result="shape"/>
</filter>
<filter id="filter5_d_2_70" x="650" y="0" width="115" height="125.538" filterUnits="userSpaceOnUse" color-interpolation-filters="sRGB">
<feFlood flood-opacity="0" result="BackgroundImageFix"/>
<feColorMatrix in="SourceAlpha" type="matrix" values="0 0 0 0 0 0 0 0 0 0 0 0 0 0 0 0 0 0 127 0" result="hardAlpha"/>
<feOffset dy="11"/>
<feComposite in2="hardAlpha" operator="out"/>
<feColorMatrix type="matrix" values="0 0 0 0 0.538272 0 0 0 0 0.291358 0 0 0 0 0.0617284 0 0 0 1 0"/>
<feBlend mode="normal" in2="BackgroundImageFix" result="effect1_dropShadow_2_70"/>
<feBlend mode="normal" in="SourceGraphic" in2="effect1_dropShadow_2_70" result="shape"/>
</filter>
</defs>
</svg>
