<svg width="20" height="20" viewBox="0 0 20 20" fill="none" xmlns="http://www.w3.org/2000/svg">
<path d="M10 0C4.5 0 0 4.5 0 10C0 15.5 4.5 20 10 20C15.5 20 20 15.5 20 10C20 4.5 15.5 0 10 0ZM14 12.6C14.4 13 14.4 13.6 14 14C13.8 14.2 13.6 14.3 13.3 14.3C13 14.3 12.8 14.2 12.6 14L10 11.4L7.4 14C7.2 14.2 6.9 14.3 6.7 14.3C6.4 14.3 6.2 14.2 6 14C5.6 13.6 5.6 13 6 12.6L8.6 10L6 7.4C5.6 7 5.6 6.4 6 6C6.4 5.6 7 5.6 7.4 6L10 8.6L12.6 6C13 5.6 13.6 5.6 14 6C14.4 6.4 14.4 7 14 7.4L11.4 10L14 12.6Z" fill="#7E7E7E"/>
</svg>
