<svg width="101" height="100" viewBox="0 0 101 100" fill="none" xmlns="http://www.w3.org/2000/svg">
<path d="M92.875 0.0624999C91.0781 0.0781249 89.3906 0.796876 88.4375 2.25L73.25 30.8125C74.375 31.2031 76.9062 32.3281 85.3125 36.125L85.4375 36.1875C86.8906 36.8438 88 37.3125 88.4375 37.5C88.5859 37.5703 88.7266 37.6797 88.875 37.75L99.9375 7.125C100.633 4.70313 98.8984 1.91406 96.125 0.8125C95.0938 0.296876 93.9531 0.0546875 92.875 0.0624999ZM8 16C3.58594 16 0 19.5859 0 24C0 28.4141 3.58594 32 8 32C12.4141 32 16 28.4141 16 24C16 19.5859 12.4141 16 8 16ZM26 22C23.7891 22 22 23.7891 22 26C22 28.2109 23.7891 30 26 30C28.2109 30 30 28.2109 30 26C30 23.7891 28.2109 22 26 22ZM64.3125 33.25C60.4453 33.5391 57.0781 35.4609 54.6875 38.8125C56.1953 41.3516 58.8359 44.4531 62.5625 44.375C63.5469 44.3359 64.375 45.0469 64.5625 46C65.3203 47.1797 69.9766 49.2734 71.3125 48.75C71.875 48.5312 72.4766 48.5781 73 48.875C73.5234 49.1719 73.8984 49.6562 74 50.25C74.0781 50.5781 74.9531 51.7266 76.75 52.5625C78.1641 53.2188 79.5391 53.3828 80.3125 53C80.8125 52.75 81.3594 52.7422 81.875 52.9375C82.3984 53.1328 82.8516 53.5469 83.0625 54.0625C84.4141 57.3594 90.5859 57.6016 94.8125 57.25C95.4297 54.5703 95.2656 51.7812 94.3125 49.1875C92.9922 45.6172 90.375 42.7969 86.8125 41.1875C86.4375 41.0234 85.2266 40.4453 83.6875 39.75C76.5625 36.5312 72.5391 34.7812 71.75 34.5625C69.1406 33.5312 66.6328 33.0781 64.3125 33.25ZM23 36C16.9375 36 12 40.9375 12 47C12 53.0625 16.9375 58 23 58C29.0625 58 34 53.0625 34 47C34 40.9375 29.0625 36 23 36ZM52.5625 42.8125C51.9375 44.2969 51.2266 45.6875 50.5 47C51.3594 49.0938 53.8984 53.9453 58.5625 52.875C59.1016 52.75 59.6719 52.8203 60.125 53.125C60.5859 53.4297 60.8438 53.8984 60.9375 54.4375C61.0703 55.1875 61.9531 56.0781 63.1875 56.75C64.9375 57.6953 66.8281 57.9062 67.625 57.5625C68.1484 57.3359 68.7344 57.3203 69.25 57.5625C69.7656 57.8047 70.1562 58.2656 70.3125 58.8125C70.5938 59.7656 71.5781 60.7422 72.9375 61.4375C74.5391 62.25 76.3672 62.5469 77.5625 62.125C78.4844 61.8047 79.4688 62.1953 79.9375 63.0625C81.7031 66.3359 87.5 66.6875 92 66.375C92.5703 64.75 93.1016 63.0781 93.625 61.3125C93.0859 61.3438 92.5234 61.375 91.9375 61.375C87.75 61.375 82.7422 60.5469 80.25 57.125C78.5625 57.3516 76.625 56.9844 74.6875 56C73.2812 55.2812 71.7344 54.1797 70.8125 52.8125C68.2656 52.8125 65.3359 51.3984 63.875 50.5C62.7422 49.8047 61.8594 49.1172 61.3125 48.375C57.3438 48.0078 54.5078 45.4219 52.5625 42.8125ZM48 50.9375C35.6016 68.1641 14.4297 67.6562 14.1875 67.625C13.3984 67.5547 12.625 67.9766 12.25 68.6875C11.875 69.3984 11.9297 70.25 12.4375 70.875C16.0078 75.2812 19.8438 79.0078 23.75 82.1875C25.5938 82.5547 37.1953 84.1953 48.6875 70.875C49.4062 70.0391 50.6641 69.9688 51.5 70.6875C52.3359 71.4062 52.4062 72.6641 51.6875 73.5C43.6719 82.7891 35.2188 85.6953 29.3125 86.3125C34.25 89.6406 39.2266 92.1562 43.875 94.0625C46.8281 93.4453 56.7344 90.4844 65.5 77.125C66.1094 76.2031 67.3906 75.8906 68.3125 76.5C69.2344 77.1094 69.4844 78.3906 68.875 79.3125C62.2656 89.3828 55.0312 94.1094 49.9375 96.3125C60.3359 99.6797 68.0938 99.9766 68.75 100H68.8125C69.1875 100 69.5547 99.8906 69.875 99.6875C70.4375 99.3359 82.0156 91.7734 90.5 70.5C90.1719 70.5078 89.8359 70.5625 89.5 70.5625C85.125 70.5625 80.0703 69.6797 77.3125 66.25C75.375 66.4844 73.1562 66.0391 71.125 65C69.4688 64.1484 68.1562 63.0078 67.3125 61.6875C65.1875 61.8672 62.8906 61.1016 61.3125 60.25C59.6875 59.3672 58.4141 58.2578 57.6875 57C53.0859 57.2422 49.8906 54.1094 48 50.9375Z" fill="white"/>
</svg>
