<svg width="21" height="21" viewBox="0 0 21 21" fill="none" xmlns="http://www.w3.org/2000/svg">
<path d="M11.3 21C8.60005 21 6.00005 20 4.00005 18C4.55379e-05 14 4.55379e-05 7.69997 3.90005 3.79997C5.30005 2.29997 7.20005 1.29997 9.30005 0.999971C9.70005 0.899971 10.1 1.09997 10.3 1.49997C10.5 1.89997 10.5 2.29997 10.2 2.59997C8.00005 5.09997 8.20005 8.99997 10.6 11.4C13 13.8 16.8 14 19.3 11.8C19.6 11.5 20.1 11.5 20.4 11.7C20.8 11.9 21 12.3 20.9 12.7C20.6 14.8 19.6 16.6 18.2 18.1C16.3 20 13.8 21 11.3 21Z" fill="#949494"/>
</svg>
