<svg width="29" height="18" viewBox="0 0 29 18" fill="none" xmlns="http://www.w3.org/2000/svg">
<path d="M8.56598 0.5H25C26.933 0.5 28.5 2.067 28.5 4V14C28.5 15.933 26.933 17.5 25 17.5H8.48339C7.37797 17.5 6.33752 16.9778 5.67697 16.0914L2.12206 11.3211C1.22253 10.1141 1.1956 8.46705 2.05517 7.23122L5.69266 2.00149C6.34692 1.06084 7.42017 0.5 8.56598 0.5Z" stroke="white"/>
<path d="M18.1886 6.3C17.7543 5.9 17.1029 5.9 16.6686 6.3L15.2571 7.6L13.8457 6.3C13.4114 5.9 12.76 5.9 12.3257 6.3C11.8914 6.7 11.8914 7.3 12.3257 7.7L13.7371 9L12.3257 10.3C11.8914 10.7 11.8914 11.3 12.3257 11.7C12.5429 11.9 12.76 12 13.0857 12C13.4114 12 13.6286 11.9 13.8457 11.7L15.2571 10.4L16.6686 11.7C16.8857 11.9 17.2114 12 17.4286 12C17.6457 12 17.9714 11.9 18.1886 11.7C18.6229 11.3 18.6229 10.7 18.1886 10.3L16.7771 9L18.1886 7.7C18.6229 7.3 18.6229 6.7 18.1886 6.3Z" fill="white"/>
</svg>
