<svg width="92" height="92" viewBox="0 0 92 92" fill="none" xmlns="http://www.w3.org/2000/svg">
<path d="M45.8333 0C38.9417 0 33.3333 5.60833 33.3333 12.5C33.3333 19.3917 38.9417 25 45.8333 25C52.725 25 58.3333 19.3917 58.3333 12.5C58.3333 5.60833 52.725 0 45.8333 0ZM50 25.4313V45.8333C50 48.1333 48.1375 50 45.8333 50C43.5292 50 41.6667 48.1333 41.6667 45.8333V25.4395C40.2167 25.7478 38.7859 26.2019 37.3942 26.8311L4.72819 41.5365C1.93652 42.7948 0.124805 45.5668 0.00813802 48.7793C-0.108529 52.0168 1.5026 54.9378 4.23177 56.4128L32.0719 71.4762C36.3803 73.8096 41.1123 74.9756 45.8415 74.9756C50.5706 74.9756 55.2945 73.8054 59.6029 71.4762L87.443 56.4128C90.168 54.9378 91.7833 52.0168 91.6667 48.7793C91.5458 45.5668 89.7343 42.7948 86.9385 41.5365L54.2725 26.8229C52.8808 26.1937 51.45 25.7396 50 25.4313ZM27.0833 45.8333C30.5333 45.8333 33.3333 47.7 33.3333 50C33.3333 52.3 30.5333 54.1667 27.0833 54.1667C23.6333 54.1667 20.8333 52.3 20.8333 50C20.8333 47.7 23.6333 45.8333 27.0833 45.8333ZM1.48112 64.624C0.695963 64.6539 0 65.2971 0 66.1784V69.2301C0 71.5385 1.30645 73.6495 3.37728 74.6745L30.3955 88.0452C35.2997 90.4744 40.5625 91.6911 45.8333 91.6911C51.1 91.6911 56.3628 90.4744 61.2712 88.0452L88.3219 74.6582C90.3678 73.6457 91.6667 71.5581 91.6667 69.279V66.1865C91.6667 65.0115 90.4214 64.2529 89.388 64.8112C82.6964 68.4362 63.5661 78.8086 63.5661 78.8086C58.1202 81.7544 51.9917 83.3089 45.8333 83.3089C39.675 83.3089 33.5464 81.7544 28.1006 78.8086C28.1006 78.8086 8.97031 68.4362 2.27865 64.8112C2.02031 64.6706 1.74284 64.6141 1.48112 64.624Z" fill="#949494"/>
</svg>
