<svg width="37" height="37" viewBox="0 0 37 37" fill="none" xmlns="http://www.w3.org/2000/svg">
<path fill-rule="evenodd" clip-rule="evenodd" d="M0.583496 18.5C0.583496 8.64584 8.646 0.583344 18.5002 0.583344C28.3543 0.583344 36.4168 8.64584 36.4168 18.5C36.4168 28.3542 28.3543 36.4167 18.5002 36.4167C8.646 36.4167 0.583496 28.3542 0.583496 18.5ZM16.7085 20.2917C16.7085 21.3667 17.4252 22.0833 18.5002 22.0833C19.5752 22.0833 20.2918 21.1875 20.2918 20.2917V8.28752C20.2918 7.21252 19.5752 6.49585 18.5002 6.49585C17.4252 6.49585 16.7085 7.21252 16.7085 8.28752V20.2917ZM16.7085 28.7125C16.7085 29.7875 17.4252 30.5042 18.5002 30.5042C19.5752 30.5042 20.2918 29.7875 20.2918 28.7125V26.9208C20.2918 25.8458 19.5752 25.1292 18.5002 25.1292C17.4252 25.1292 16.7085 25.8458 16.7085 26.9208V28.7125Z" fill="#949494"/>
</svg>
