<svg width="12" height="10" viewBox="0 0 12 10" fill="none" xmlns="http://www.w3.org/2000/svg">
<path d="M5.96976 9.49431e-05C5.84095 0.00104038 5.71105 0.0090633 5.5796 0.0245112V0.0235345C4.04334 0.203708 2.7853 1.41007 2.54707 2.94176C2.36528 4.11186 2.77402 5.21139 3.52052 5.96351C3.82395 6.26889 3.99568 6.65434 3.99847 7.0554C3.99958 7.06325 4.00089 7.07106 4.00237 7.07884V7.99982C4.00237 9.09859 4.90264 10 6 10C7.09736 10 7.99763 9.09859 7.99763 7.99982V7.08373C7.99926 7.07335 8.00056 7.06293 8.00153 7.05247C8.00418 6.65568 8.1596 6.27678 8.44144 6.0016C9.09094 5.3676 9.49585 4.47805 9.49585 3.49943C9.49585 1.56227 7.9019 -0.0140866 5.96976 9.49431e-05ZM1.00105 0.494279C0.901702 0.494305 0.804618 0.523997 0.722211 0.579559C0.639804 0.635121 0.575818 0.714028 0.538434 0.806192C0.50105 0.898356 0.491966 0.999589 0.512344 1.09695C0.532722 1.19431 0.581635 1.28337 0.652831 1.35275L1.15224 1.8528C1.19826 1.90079 1.25338 1.9391 1.31437 1.9655C1.37536 1.99189 1.441 2.00583 1.50744 2.00651C1.57388 2.00719 1.63979 1.99458 1.7013 1.96944C1.76282 1.94429 1.8187 1.90711 1.86569 1.86006C1.91267 1.81302 1.94981 1.75706 1.97492 1.69547C2.00004 1.63387 2.01263 1.56788 2.01195 1.50136C2.01127 1.43483 1.99735 1.36911 1.97099 1.30804C1.94463 1.24697 1.90636 1.19178 1.85843 1.1457L1.35902 0.64566C1.31248 0.597758 1.25683 0.559682 1.19534 0.533682C1.13386 0.507681 1.06779 0.494283 1.00105 0.494279ZM10.9843 0.494279C10.8546 0.49815 10.7314 0.552444 10.641 0.64566L10.1416 1.1457C10.0936 1.19178 10.0554 1.24697 10.029 1.30804C10.0027 1.36911 9.98872 1.43483 9.98805 1.50136C9.98737 1.56788 9.99996 1.63388 10.0251 1.69547C10.0502 1.75706 10.0873 1.81302 10.1343 1.86007C10.1813 1.90711 10.2372 1.94429 10.2987 1.96944C10.3602 1.99459 10.4261 2.00719 10.4926 2.00651C10.559 2.00584 10.6246 1.99189 10.6856 1.9655C10.7466 1.9391 10.8017 1.90079 10.8478 1.8528L11.3472 1.35275C11.4193 1.28252 11.4686 1.19209 11.4886 1.09332C11.5085 0.99455 11.4982 0.892049 11.459 0.799248C11.4198 0.706447 11.3535 0.627675 11.2688 0.573256C11.1841 0.518837 11.0849 0.491309 10.9843 0.494279ZM5.97952 0.999206C7.38026 0.985479 8.49704 2.10535 8.49704 3.49943C8.49704 4.20295 8.20921 4.83162 7.74402 5.28572C7.40494 5.61679 7.21877 6.0469 7.11196 6.49969H4.88024C4.76432 6.03317 4.56359 5.59545 4.22866 5.25837C3.69369 4.71937 3.40133 3.95017 3.53418 3.09509C3.70146 2.01956 4.61405 1.14462 5.69567 1.01776C5.79133 1.00652 5.88613 1.00012 5.97952 0.999206ZM0.50652 3.49943C0.440343 3.49849 0.374639 3.51073 0.313228 3.53544C0.251817 3.56015 0.195923 3.59683 0.148794 3.64336C0.101665 3.68989 0.0642411 3.74533 0.0386975 3.80646C0.013154 3.86759 0 3.9332 0 3.99947C0 4.06574 0.013154 4.13135 0.0386975 4.19248C0.0642411 4.25361 0.101665 4.30906 0.148794 4.35558C0.195923 4.40211 0.251817 4.43879 0.313228 4.4635C0.374639 4.48821 0.440343 4.50045 0.50652 4.49951H1.00593C1.0721 4.50045 1.13781 4.48821 1.19922 4.4635C1.26063 4.43879 1.31652 4.40211 1.36365 4.35558C1.41078 4.30906 1.44821 4.25361 1.47375 4.19248C1.49929 4.13135 1.51245 4.06574 1.51245 3.99947C1.51245 3.9332 1.49929 3.86759 1.47375 3.80646C1.44821 3.74533 1.41078 3.68989 1.36365 3.64336C1.31652 3.59683 1.26063 3.56015 1.19922 3.53544C1.13781 3.51073 1.0721 3.49849 1.00593 3.49943H0.50652ZM10.9941 3.49943C10.9279 3.49849 10.8622 3.51073 10.8008 3.53544C10.7394 3.56015 10.6835 3.59683 10.6363 3.64336C10.5892 3.68989 10.5518 3.74533 10.5263 3.80646C10.5007 3.86759 10.4876 3.9332 10.4876 3.99947C10.4876 4.06574 10.5007 4.13135 10.5263 4.19248C10.5518 4.25361 10.5892 4.30906 10.6363 4.35558C10.6835 4.40211 10.7394 4.43879 10.8008 4.4635C10.8622 4.48821 10.9279 4.50045 10.9941 4.49951H11.4935C11.5597 4.50045 11.6254 4.48821 11.6868 4.4635C11.7482 4.43879 11.8041 4.40211 11.8512 4.35558C11.8983 4.30906 11.9358 4.25361 11.9613 4.19248C11.9868 4.13135 12 4.06574 12 3.99947C12 3.9332 11.9868 3.86759 11.9613 3.80646C11.9358 3.74533 11.8983 3.68989 11.8512 3.64336C11.8041 3.59683 11.7482 3.56015 11.6868 3.53544C11.6254 3.51073 11.5597 3.49849 11.4935 3.49943H10.9941ZM1.49558 5.99476C1.36584 5.99863 1.24269 6.05293 1.15224 6.14614L0.652831 6.64619C0.604901 6.69226 0.566635 6.74745 0.540274 6.80852C0.513913 6.86959 0.499986 6.93532 0.49931 7.00184C0.498634 7.06837 0.511222 7.13436 0.536337 7.19595C0.561452 7.25755 0.598589 7.31351 0.645572 7.36055C0.692556 7.40759 0.748442 7.44478 0.809958 7.46992C0.871473 7.49507 0.937382 7.50767 1.00382 7.507C1.07026 7.50632 1.1359 7.49238 1.1969 7.46598C1.25789 7.43959 1.31301 7.40127 1.35902 7.35328L1.85843 6.85324C1.9306 6.783 1.97989 6.69257 1.99984 6.5938C2.0198 6.49503 2.00949 6.39253 1.97027 6.29973C1.93104 6.20693 1.86473 6.12816 1.78003 6.07374C1.69533 6.01932 1.59618 5.99179 1.49558 5.99476ZM10.4898 5.99476C10.3904 5.99479 10.2934 6.02448 10.2109 6.08004C10.1285 6.13561 10.0646 6.21451 10.0272 6.30668C9.98979 6.39884 9.9807 6.50007 10.0011 6.59743C10.0215 6.69479 10.0704 6.78386 10.1416 6.85324L10.641 7.35328C10.687 7.40127 10.7421 7.43959 10.8031 7.46598C10.8641 7.49238 10.9297 7.50632 10.9962 7.507C11.0626 7.50768 11.1285 7.49507 11.19 7.46993C11.2516 7.44478 11.3074 7.4076 11.3544 7.36055C11.4014 7.31351 11.4386 7.25755 11.4637 7.19596C11.4888 7.13436 11.5014 7.06837 11.5007 7.00184C11.5 6.93532 11.4861 6.86959 11.4597 6.80852C11.4334 6.74745 11.3951 6.69226 11.3472 6.64619L10.8478 6.14614C10.8012 6.09824 10.7456 6.06017 10.6841 6.03417C10.6226 6.00817 10.5565 5.99477 10.4898 5.99476ZM5.00119 7.49978H6.99881V7.99982C6.99881 8.55821 6.55767 8.99991 6 8.99991C5.44233 8.99991 5.00119 8.55821 5.00119 7.99982V7.49978Z" fill="white"/>
</svg>
