<svg width="22" height="22" viewBox="0 0 22 22" fill="none" xmlns="http://www.w3.org/2000/svg">
<path d="M11 4.2C7.4 4.2 4.5 7.1 4.5 10.7C4.5 14.3 7.4 17.2 11 17.2C14.6 17.2 17.5 14.3 17.5 10.7C17.5 7.1 14.6 4.2 11 4.2Z" fill="#949494"/>
<path d="M11 3.6C11.6 3.6 12 3.2 12 2.6V1C12 0.4 11.6 0 11 0C10.4 0 10 0.4 10 1V2.6C10 3.1 10.4 3.6 11 3.6Z" fill="#949494"/>
<path d="M4.3 5.7C4.5 5.9 4.8 6 5 6C5.2 6 5.5 5.9 5.7 5.7C6.1 5.3 6.1 4.7 5.7 4.3L4.6 3.2C4.2 2.8 3.6 2.8 3.2 3.2C2.8 3.6 2.8 4.2 3.2 4.6L4.3 5.7Z" fill="#949494"/>
<path d="M3.6 11C3.6 10.4 3.2 10 2.6 10H1C0.4 10 0 10.4 0 11C0 11.6 0.4 12 1 12H2.6C3.1 12 3.6 11.6 3.6 11Z" fill="#949494"/>
<path d="M4.3 16.3L3.2 17.4C2.8 17.8 2.8 18.4 3.2 18.8C3.4 19 3.7 19.1 3.9 19.1C4.1 19.1 4.4 19 4.6 18.8L5.7 17.7C6.1 17.3 6.1 16.7 5.7 16.3C5.3 15.9 4.7 15.9 4.3 16.3Z" fill="#949494"/>
<path d="M11 18.4C10.4 18.4 10 18.8 10 19.4V21C10 21.6 10.4 22 11 22C11.6 22 12 21.6 12 21V19.4C12 18.9 11.6 18.4 11 18.4Z" fill="#949494"/>
<path d="M17.7 16.3C17.3 15.9 16.7 15.9 16.3 16.3C15.9 16.7 15.9 17.3 16.3 17.7L17.4 18.8C17.6 19 17.9 19.1 18.1 19.1C18.3 19.1 18.6 19 18.8 18.8C19.2 18.4 19.2 17.8 18.8 17.4L17.7 16.3Z" fill="#949494"/>
<path d="M21 10H19.4C18.8 10 18.4 10.4 18.4 11C18.4 11.6 18.8 12 19.4 12H21C21.6 12 22 11.6 22 11C22 10.4 21.6 10 21 10Z" fill="#949494"/>
<path d="M17 6C17.3 6 17.5 5.9 17.7 5.7L18.8 4.6C19.2 4.2 19.2 3.6 18.8 3.2C18.4 2.8 17.8 2.8 17.4 3.2L16.3 4.3C15.9 4.7 15.9 5.3 16.3 5.7C16.5 5.9 16.7 6 17 6Z" fill="#949494"/>
</svg>
