<svg width="94" height="96" viewBox="0 0 94 96" fill="none" xmlns="http://www.w3.org/2000/svg">
<path d="M85.4616 0.567322C81.6154 0.567322 78.4904 3.69232 78.4904 7.53847C78.4904 8.01924 78.5205 8.53006 78.6106 8.98078L69.2356 16.6731C68.3342 16.2374 67.2975 15.9519 66.2308 15.9519C63.9472 15.9519 61.979 17.1388 60.702 18.8366L53.7308 17.3942C52.9796 14.3444 50.2753 12.1058 47 12.1058C43.1539 12.1058 40.0289 15.2308 40.0289 19.0769C40.0289 19.6479 40.1341 20.2338 40.2693 20.7596L30.7741 28.2116C29.8726 27.7759 28.836 27.4904 27.7693 27.4904C23.9231 27.4904 20.7981 30.6154 20.7981 34.4615C20.7981 34.6569 20.7831 34.8672 20.7981 35.0625L12.1443 40.1106C11.0776 39.4495 9.87564 39.0289 8.5385 39.0289C4.69235 39.0289 1.56735 42.1539 1.56735 46C1.56735 49.8462 4.69235 52.9712 8.5385 52.9712C12.3847 52.9712 15.5097 49.8462 15.5097 46C15.5097 45.7146 15.4195 45.4291 15.3895 45.1587L24.0433 40.2308C25.1401 40.9369 26.372 41.4327 27.7693 41.4327C31.6154 41.4327 34.7404 38.3077 34.7404 34.4615C34.7404 33.9808 34.7104 33.47 34.6202 33.0192L44.2356 25.4471C45.077 25.7927 46.0385 26.0481 47 26.0481C49.1936 26.0481 51.1317 24.9964 52.4087 23.4039L59.5 24.8462C60.3264 27.7909 63.0307 29.8942 66.2308 29.8942C70.077 29.8942 73.202 26.7692 73.202 22.9231C73.202 22.4423 73.1719 21.9315 73.0818 21.4808L82.4568 13.7885C83.3582 14.2242 84.3949 14.5096 85.4616 14.5096C89.3077 14.5096 92.4327 11.3846 92.4327 7.53847C92.4327 3.69232 89.3077 0.567322 85.4616 0.567322ZM81.6154 38.3077C79.497 38.3077 77.7693 40.0355 77.7693 42.1539V92.1539C77.7693 94.2722 79.497 96 81.6154 96H89.3077C91.4261 96 93.1539 94.2722 93.1539 92.1539V42.1539C93.1539 40.0355 91.4261 38.3077 89.3077 38.3077H81.6154ZM43.1539 46C41.0355 46 39.3077 47.7278 39.3077 49.8462V92.1539C39.3077 94.2722 41.0355 96 43.1539 96H50.8462C52.9646 96 54.6923 94.2722 54.6923 92.1539V49.8462C54.6923 47.7278 52.9646 46 50.8462 46H43.1539ZM62.3847 53.6923C60.2663 53.6923 58.5385 55.4201 58.5385 57.5385V92.1539C58.5385 94.2722 60.2663 96 62.3847 96H70.077C72.1954 96 73.9231 94.2722 73.9231 92.1539V57.5385C73.9231 55.4201 72.1954 53.6923 70.077 53.6923H62.3847ZM23.9231 57.5385C21.8047 57.5385 20.077 59.2662 20.077 61.3846V92.1539C20.077 94.2722 21.8047 96 23.9231 96H31.6154C33.7338 96 35.4616 94.2722 35.4616 92.1539V61.3846C35.4616 59.2662 33.7338 57.5385 31.6154 57.5385H23.9231ZM4.69235 65.2308C2.57396 65.2308 0.846191 66.9585 0.846191 69.0769V92.1539C0.846191 94.2722 2.57396 96 4.69235 96H12.3847C14.503 96 16.2308 94.2722 16.2308 92.1539V69.0769C16.2308 66.9585 14.503 65.2308 12.3847 65.2308H4.69235Z" fill="#949494"/>
</svg>
