<svg width="18" height="16" viewBox="0 0 18 16" fill="none" xmlns="http://www.w3.org/2000/svg">
<path d="M6.43506 15.6602C5.854 15.6602 5.4113 15.4997 5.10693 15.1787C4.80257 14.8633 4.65039 14.4316 4.65039 13.8838V10.165H1.27197C0.934408 10.165 0.649414 10.071 0.416992 9.88281C0.18457 9.68913 0.0683594 9.43457 0.0683594 9.11914C0.0683594 8.92546 0.109863 8.75391 0.192871 8.60449C0.281413 8.45508 0.405924 8.30013 0.566406 8.13965L7.9707 0.760254C8.13118 0.594238 8.29443 0.469727 8.46045 0.386719C8.632 0.298177 8.80908 0.253906 8.9917 0.253906C9.17985 0.253906 9.35693 0.298177 9.52295 0.386719C9.6945 0.469727 9.86051 0.594238 10.021 0.760254L17.4253 8.13965C17.5747 8.28906 17.6937 8.44124 17.7822 8.59619C17.8763 8.75114 17.9233 8.92546 17.9233 9.11914C17.9233 9.43457 17.8044 9.68913 17.5664 9.88281C17.334 10.071 17.049 10.165 16.7114 10.165H13.3413V13.8838C13.3413 14.4316 13.1891 14.8633 12.8848 15.1787C12.5804 15.4997 12.1377 15.6602 11.5566 15.6602H6.43506ZM6.56787 14.3735H11.4238C11.5732 14.3735 11.6978 14.3237 11.7974 14.2241C11.9025 14.1245 11.9551 14 11.9551 13.8506V9.19385C11.9551 9.0057 12.0464 8.91162 12.229 8.91162H16.0557C16.1165 8.91162 16.147 8.88949 16.147 8.84521C16.147 8.81201 16.1304 8.77881 16.0972 8.74561L9.16602 1.85596C9.13835 1.82275 9.11068 1.80062 9.08301 1.78955C9.05534 1.77848 9.0249 1.77295 8.9917 1.77295C8.96403 1.77295 8.93636 1.77848 8.90869 1.78955C8.88102 1.80062 8.85059 1.82275 8.81738 1.85596L1.88623 8.74561C1.85303 8.77881 1.83643 8.81201 1.83643 8.84521C1.83643 8.88949 1.86686 8.91162 1.92773 8.91162H5.7627C5.94531 8.91162 6.03662 9.0057 6.03662 9.19385V13.8506C6.03662 14.0055 6.08643 14.13 6.18604 14.2241C6.28564 14.3237 6.41292 14.3735 6.56787 14.3735Z" fill="white" fill-opacity="0.96"/>
</svg>
