<svg width="22" height="19" viewBox="0 0 22 19" fill="none" xmlns="http://www.w3.org/2000/svg">
<path d="M4.90565 18.296H2.13962C1.32006 18.296 0.602937 17.896 0.2956 17.196C-0.114182 16.496 -0.0117364 15.596 0.398046 14.896L4.08608 9.59599C4.18853 9.39599 4.18853 9.19599 4.08608 8.99599L0.398046 3.69599C-0.114182 2.99599 -0.114182 2.19599 0.2956 1.39599C0.602937 0.69599 1.32006 0.29599 2.13962 0.29599H4.90565C5.9301 0.29599 6.95456 0.79599 7.46679 1.69599L11.4622 7.49599C12.1793 8.59599 12.1793 9.99599 11.4622 11.096L7.46679 16.896C6.95456 17.796 5.9301 18.296 4.90565 18.296ZM2.03717 2.59599L5.72521 7.89599C6.33989 8.69599 6.33989 9.89599 5.72521 10.696L2.03717 15.996C1.93473 16.096 2.03717 16.196 2.03717 16.196C2.13962 16.296 2.13962 16.296 2.13962 16.296H4.90565C5.21299 16.296 5.62277 16.096 5.82766 15.796L9.82303 9.99599C10.1304 9.59599 10.1304 8.99599 9.82303 8.59599L5.82766 2.79599C5.62277 2.49599 5.21299 2.29599 4.90565 2.29599H2.13962C2.13962 2.29599 2.13962 2.29599 2.03717 2.39599C2.03717 2.39599 2.03717 2.49599 2.03717 2.59599Z" fill="#c39318"/>
<path d="M14.9056 18.296H12.1396C11.3201 18.296 10.6029 17.896 10.2956 17.196C9.88582 16.496 9.98826 15.596 10.398 14.896L14.0861 9.59599C14.1885 9.39599 14.1885 9.19599 14.0861 8.99599L10.398 3.69599C9.88582 2.99599 9.88582 2.19599 10.2956 1.39599C10.6029 0.69599 11.3201 0.29599 12.1396 0.29599H14.9056C15.9301 0.29599 16.9546 0.79599 17.4668 1.69599L21.4622 7.49599C22.1793 8.59599 22.1793 9.99599 21.4622 11.096L17.4668 16.896C16.8521 17.796 15.9301 18.296 14.9056 18.296ZM12.1396 2.29599C12.0372 2.29599 12.0372 2.29599 12.1396 2.29599C12.0372 2.39599 12.0372 2.49599 12.0372 2.59599L15.7252 7.89599C16.3399 8.69599 16.3399 9.89599 15.7252 10.696L12.0372 15.996C11.9347 16.096 12.0372 16.196 12.0372 16.196C12.0372 16.296 12.1396 16.296 12.1396 16.296H14.9056C15.213 16.296 15.6228 16.096 15.8277 15.796L19.823 9.99599C20.1304 9.59599 20.1304 8.99599 19.823 8.59599L15.8277 2.79599C15.5203 2.49599 15.213 2.29599 14.9056 2.29599H12.1396Z" fill="#c39318"/>
</svg>
