<svg width="1920" height="1080" viewBox="0 0 1920 1080" fill="none" xmlns="http://www.w3.org/2000/svg">
<rect width="1920" height="1080" fill="black"/>
<g opacity="0.25">
<rect x="1597.47" y="742.492" width="157" height="157" rx="25.5" transform="rotate(26.8757 1597.47 742.492)" fill="#D9D9D9" stroke="black" stroke-width="7"/>
<path d="M1645.39 770.704L1646.29 768.92L1644.51 768.015L1619.53 755.358C1607.71 749.366 1593.27 754.093 1587.28 765.916L1574.62 790.892L1573.71 792.676L1575.5 793.58L1620.1 816.183L1621.88 817.087L1622.79 815.303L1645.39 770.704Z" fill="white" stroke="black" stroke-width="4"/>
<path d="M1689.11 790.618L1687.32 789.714L1686.42 791.498L1663.82 836.098L1662.91 837.882L1664.7 838.786L1709.3 861.389L1711.08 862.293L1711.98 860.509L1724.64 835.533C1730.63 823.71 1725.91 809.268 1714.08 803.276L1689.11 790.618Z" fill="white" stroke="black" stroke-width="4"/>
<rect x="1642.72" y="767.111" width="54" height="54" transform="rotate(26.8757 1642.72 767.111)" fill="white" stroke="black" stroke-width="4"/>
<path d="M1554.7 834.611L1552.92 833.707L1552.02 835.491L1539.36 860.467C1533.37 872.29 1538.09 886.732 1549.92 892.724L1574.89 905.382L1576.68 906.286L1577.58 904.502L1600.18 859.902L1601.09 858.118L1599.3 857.214L1554.7 834.611Z" fill="#58BE56" stroke="black" stroke-width="4"/>
<path d="M1643.9 879.817L1642.12 878.913L1641.21 880.697L1618.61 925.296L1617.71 927.08L1619.49 927.985L1644.47 940.642C1656.29 946.634 1670.73 941.907 1676.72 930.084L1689.38 905.108L1690.29 903.324L1688.5 902.42L1643.9 879.817Z" fill="#58BE56" stroke="black" stroke-width="4"/>
<rect x="1597.52" y="856.31" width="54" height="54" transform="rotate(26.8757 1597.52 856.31)" fill="#58BE56" stroke="black" stroke-width="4"/>
<mask id="path-9-outside-1_6_71" maskUnits="userSpaceOnUse" x="1548.42" y="787.312" width="77.5026" height="77.0627" fill="black">
<rect fill="white" x="1548.42" y="787.312" width="77.5026" height="77.0627"/>
<path d="M1576.4 791.796L1621 814.399L1598.4 858.998L1553.8 836.395L1576.4 791.796Z"/>
</mask>
<path d="M1576.4 791.796L1621 814.399L1598.4 858.998L1553.8 836.395L1576.4 791.796Z" fill="white"/>
<path d="M1576.4 791.796L1577.76 789.12L1574.19 787.312L1572.83 789.988L1576.4 791.796ZM1621 814.399L1624.57 816.207L1625.93 813.531L1622.36 811.723L1621 814.399ZM1598.4 858.998L1596.59 862.566L1600.16 864.374L1601.97 860.806L1598.4 858.998ZM1553.8 836.395L1550.23 834.587L1548.42 838.155L1551.99 839.963L1553.8 836.395ZM1575.05 794.472L1619.65 817.075L1622.36 811.723L1577.76 789.12L1575.05 794.472ZM1617.43 812.591L1594.83 857.19L1601.97 860.806L1624.57 816.207L1617.43 812.591ZM1600.21 855.43L1555.61 832.827L1551.99 839.963L1596.59 862.566L1600.21 855.43ZM1557.37 838.204L1579.97 793.604L1572.83 789.988L1550.23 834.587L1557.37 838.204Z" fill="black" mask="url(#path-9-outside-1_6_71)"/>
<mask id="path-11-outside-2_6_71" maskUnits="userSpaceOnUse" x="1637.62" y="832.518" width="77.5026" height="77.0627" fill="black">
<rect fill="white" x="1637.62" y="832.518" width="77.5026" height="77.0627"/>
<path d="M1665.6 837.002L1710.2 859.605L1687.6 904.204L1643 881.601L1665.6 837.002Z"/>
</mask>
<path d="M1665.6 837.002L1710.2 859.605L1687.6 904.204L1643 881.601L1665.6 837.002Z" fill="#58BE56"/>
<path d="M1665.6 837.002L1666.96 834.326L1663.39 832.518L1662.03 835.193L1665.6 837.002ZM1710.2 859.605L1713.77 861.413L1715.12 858.737L1711.56 856.929L1710.2 859.605ZM1687.6 904.204L1685.79 907.772L1689.36 909.58L1691.17 906.012L1687.6 904.204ZM1643 881.601L1639.43 879.793L1637.62 883.361L1641.19 885.169L1643 881.601ZM1664.24 839.678L1708.84 862.281L1711.56 856.929L1666.96 834.326L1664.24 839.678ZM1706.63 857.796L1684.03 902.396L1691.17 906.012L1713.77 861.413L1706.63 857.796ZM1689.41 900.636L1644.81 878.033L1641.19 885.169L1685.79 907.772L1689.41 900.636ZM1646.57 883.409L1669.17 838.81L1662.03 835.193L1639.43 879.793L1646.57 883.409Z" fill="black" mask="url(#path-11-outside-2_6_71)"/>
<mask id="path-13-outside-3_6_71" maskUnits="userSpaceOnUse" x="1593.02" y="809.915" width="77.5026" height="77.0627" fill="black">
<rect fill="white" x="1593.02" y="809.915" width="77.5026" height="77.0627"/>
<path d="M1621 814.399L1665.6 837.002L1643 881.601L1598.4 858.998L1621 814.399Z"/>
</mask>
<path d="M1621 814.399L1665.6 837.002L1643 881.601L1598.4 858.998L1621 814.399Z" fill="#FFE600"/>
<path d="M1621 814.399L1622.36 811.723L1618.79 809.915L1617.43 812.591L1621 814.399ZM1665.6 837.002L1669.17 838.81L1670.53 836.134L1666.96 834.326L1665.6 837.002ZM1643 881.601L1641.19 885.169L1644.76 886.977L1646.57 883.409L1643 881.601ZM1598.4 858.998L1594.83 857.19L1593.02 860.758L1596.59 862.566L1598.4 858.998ZM1619.65 817.075L1664.24 839.678L1666.96 834.326L1622.36 811.723L1619.65 817.075ZM1662.03 835.193L1639.43 879.793L1646.57 883.409L1669.17 838.81L1662.03 835.193ZM1644.81 878.033L1600.21 855.43L1596.59 862.566L1641.19 885.169L1644.81 878.033ZM1601.97 860.807L1624.57 816.207L1617.43 812.591L1594.83 857.19L1601.97 860.807Z" fill="black" mask="url(#path-13-outside-3_6_71)"/>
</g>
<g opacity="0.25">
<rect x="1225.16" y="402.746" width="157" height="157" rx="25.5" transform="rotate(-25.5005 1225.16 402.746)" fill="#D9D9D9" stroke="black" stroke-width="7"/>
<path d="M1276.76 382.012L1275.89 380.207L1274.09 381.068L1248.82 393.122C1236.85 398.829 1231.78 413.153 1237.49 425.117L1249.54 450.389L1250.4 452.194L1252.21 451.333L1297.34 429.807L1299.14 428.946L1298.28 427.141L1276.76 382.012Z" fill="white" stroke="black" stroke-width="4"/>
<path d="M1319.22 359.542L1317.41 360.403L1318.27 362.208L1339.8 407.337L1340.66 409.142L1342.47 408.281L1387.6 386.755L1389.4 385.894L1388.54 384.089L1376.48 358.817C1370.78 346.853 1356.45 341.781 1344.49 347.487L1319.22 359.542Z" fill="white" stroke="black" stroke-width="4"/>
<rect x="1272.28" y="381.929" width="54" height="54" transform="rotate(-25.5005 1272.28 381.929)" fill="white" stroke="black" stroke-width="4"/>
<path d="M1272.01 492.852L1270.21 493.713L1271.07 495.518L1283.12 520.79C1288.83 532.754 1303.15 537.826 1315.12 532.12L1340.39 520.065L1342.19 519.204L1341.33 517.399L1319.81 472.27L1318.95 470.465L1317.14 471.326L1272.01 492.852Z" fill="#58BE56" stroke="black" stroke-width="4"/>
<path d="M1362.27 449.8L1360.46 450.661L1361.33 452.466L1382.85 497.595L1383.71 499.4L1385.52 498.539L1410.79 486.485C1422.75 480.778 1427.83 466.454 1422.12 454.49L1410.07 429.218L1409.2 427.413L1407.4 428.274L1362.27 449.8Z" fill="#58BE56" stroke="black" stroke-width="4"/>
<rect x="1315.34" y="472.187" width="54" height="54" transform="rotate(-25.5005 1315.34 472.187)" fill="#58BE56" stroke="black" stroke-width="4"/>
<mask id="path-22-outside-4_6_71" maskUnits="userSpaceOnUse" x="1246.44" y="423.572" width="76.8893" height="76.4172" fill="black">
<rect fill="white" x="1246.44" y="423.572" width="76.8893" height="76.4172"/>
<path d="M1251.35 449.528L1296.48 428.002L1318 473.131L1272.87 494.657L1251.35 449.528Z"/>
</mask>
<path d="M1251.35 449.528L1296.48 428.002L1318 473.131L1272.87 494.657L1251.35 449.528Z" fill="white"/>
<path d="M1251.35 449.528L1250.06 446.82L1246.44 448.542L1247.74 451.25L1251.35 449.528ZM1296.48 428.002L1300.09 426.28L1298.79 423.572L1295.18 425.294L1296.48 428.002ZM1318 473.131L1319.72 476.741L1323.33 475.019L1321.61 471.409L1318 473.131ZM1272.87 494.657L1269.26 496.379L1270.98 499.989L1274.59 498.267L1272.87 494.657ZM1252.64 452.236L1297.77 430.71L1295.18 425.294L1250.06 446.82L1252.64 452.236ZM1292.87 429.724L1314.39 474.853L1321.61 471.409L1300.09 426.28L1292.87 429.724ZM1316.28 469.521L1271.15 491.047L1274.59 498.267L1319.72 476.741L1316.28 469.521ZM1276.48 492.935L1254.96 447.806L1247.74 451.25L1269.26 496.379L1276.48 492.935Z" fill="black" mask="url(#path-22-outside-4_6_71)"/>
<mask id="path-24-outside-5_6_71" maskUnits="userSpaceOnUse" x="1336.7" y="380.52" width="76.8893" height="76.4172" fill="black">
<rect fill="white" x="1336.7" y="380.52" width="76.8893" height="76.4172"/>
<path d="M1341.61 406.476L1386.73 384.95L1408.26 430.079L1363.13 451.605L1341.61 406.476Z"/>
</mask>
<path d="M1341.61 406.476L1386.73 384.95L1408.26 430.079L1363.13 451.605L1341.61 406.476Z" fill="#58BE56"/>
<path d="M1341.61 406.476L1340.31 403.768L1336.7 405.49L1337.99 408.198L1341.61 406.476ZM1386.73 384.95L1390.34 383.228L1389.05 380.52L1385.44 382.242L1386.73 384.95ZM1408.26 430.079L1409.98 433.689L1413.59 431.967L1411.87 428.357L1408.26 430.079ZM1363.13 451.605L1359.52 453.327L1361.24 456.937L1364.85 455.215L1363.13 451.605ZM1342.9 409.184L1388.03 387.658L1385.44 382.242L1340.31 403.768L1342.9 409.184ZM1383.12 386.672L1404.65 431.801L1411.87 428.357L1390.34 383.228L1383.12 386.672ZM1406.54 426.469L1361.41 447.995L1364.85 455.215L1409.98 433.689L1406.54 426.469ZM1366.74 449.883L1345.22 404.754L1337.99 408.198L1359.52 453.327L1366.74 449.883Z" fill="black" mask="url(#path-24-outside-5_6_71)"/>
<mask id="path-26-outside-6_6_71" maskUnits="userSpaceOnUse" x="1291.57" y="402.046" width="76.8893" height="76.4172" fill="black">
<rect fill="white" x="1291.57" y="402.046" width="76.8893" height="76.4172"/>
<path d="M1296.48 428.002L1341.61 406.476L1363.13 451.605L1318 473.131L1296.48 428.002Z"/>
</mask>
<path d="M1296.48 428.002L1341.61 406.476L1363.13 451.605L1318 473.131L1296.48 428.002Z" fill="#FFE600"/>
<path d="M1296.48 428.002L1295.18 425.294L1291.57 427.016L1292.87 429.724L1296.48 428.002ZM1341.61 406.476L1345.22 404.754L1343.92 402.046L1340.31 403.768L1341.61 406.476ZM1363.13 451.605L1364.85 455.215L1368.46 453.493L1366.74 449.883L1363.13 451.605ZM1318 473.131L1314.39 474.853L1316.11 478.463L1319.72 476.741L1318 473.131ZM1297.77 430.71L1342.9 409.184L1340.31 403.768L1295.18 425.294L1297.77 430.71ZM1337.99 408.198L1359.52 453.327L1366.74 449.883L1345.22 404.754L1337.99 408.198ZM1361.41 447.995L1316.28 469.521L1319.72 476.741L1364.85 455.215L1361.41 447.995ZM1321.61 471.409L1300.09 426.28L1292.87 429.724L1314.39 474.853L1321.61 471.409Z" fill="black" mask="url(#path-26-outside-6_6_71)"/>
</g>
<g opacity="0.25">
<rect x="1439.33" y="147.926" width="157" height="157" rx="25.5" transform="rotate(-25.5005 1439.33 147.926)" fill="#D9D9D9" stroke="black" stroke-width="7"/>
<path d="M1490.93 127.191L1490.07 125.386L1488.27 126.247L1463 138.301C1451.03 144.008 1445.96 158.332 1451.67 170.296L1463.72 195.568L1464.58 197.373L1466.39 196.512L1511.52 174.986L1513.32 174.125L1512.46 172.32L1490.93 127.191Z" fill="white" stroke="black" stroke-width="4"/>
<path d="M1533.4 104.721L1531.59 105.582L1532.45 107.387L1553.98 152.516L1554.84 154.321L1556.65 153.46L1601.77 131.934L1603.58 131.073L1602.72 129.268L1590.66 103.996C1584.96 92.0322 1570.63 86.9598 1558.67 92.6662L1533.4 104.721Z" fill="white" stroke="black" stroke-width="4"/>
<rect x="1486.46" y="127.108" width="54" height="54" transform="rotate(-25.5005 1486.46 127.108)" fill="white" stroke="black" stroke-width="4"/>
<path d="M1486.19 238.031L1484.39 238.892L1485.25 240.697L1497.3 265.969C1503.01 277.933 1517.33 283.005 1529.3 277.299L1554.57 265.244L1556.37 264.383L1555.51 262.578L1533.99 217.449L1533.13 215.644L1531.32 216.505L1486.19 238.031Z" fill="#58BE56" stroke="black" stroke-width="4"/>
<path d="M1576.45 194.979L1574.64 195.84L1575.5 197.645L1597.03 242.774L1597.89 244.579L1599.7 243.718L1624.97 231.664C1636.93 225.957 1642.01 211.633 1636.3 199.669L1624.24 174.397L1623.38 172.592L1621.58 173.453L1576.45 194.979Z" fill="#58BE56" stroke="black" stroke-width="4"/>
<rect x="1529.51" y="217.366" width="54" height="54" transform="rotate(-25.5005 1529.51 217.366)" fill="#58BE56" stroke="black" stroke-width="4"/>
<mask id="path-35-outside-7_6_71" maskUnits="userSpaceOnUse" x="1460.62" y="168.751" width="76.8893" height="76.4172" fill="black">
<rect fill="white" x="1460.62" y="168.751" width="76.8893" height="76.4172"/>
<path d="M1465.53 194.707L1510.66 173.181L1532.18 218.31L1487.05 239.836L1465.53 194.707Z"/>
</mask>
<path d="M1465.53 194.707L1510.66 173.181L1532.18 218.31L1487.05 239.836L1465.53 194.707Z" fill="white"/>
<path d="M1465.53 194.707L1464.23 191.999L1460.62 193.721L1461.92 196.429L1465.53 194.707ZM1510.66 173.181L1514.27 171.459L1512.97 168.751L1509.36 170.473L1510.66 173.181ZM1532.18 218.31L1533.9 221.92L1537.51 220.198L1535.79 216.588L1532.18 218.31ZM1487.05 239.836L1483.44 241.558L1485.16 245.168L1488.77 243.446L1487.05 239.836ZM1466.82 197.415L1511.95 175.889L1509.36 170.473L1464.23 191.999L1466.82 197.415ZM1507.04 174.903L1528.57 220.032L1535.79 216.588L1514.27 171.459L1507.04 174.903ZM1530.46 214.7L1485.33 236.226L1488.77 243.446L1533.9 221.92L1530.46 214.7ZM1490.66 238.114L1469.14 192.985L1461.92 196.429L1483.44 241.558L1490.66 238.114Z" fill="black" mask="url(#path-35-outside-7_6_71)"/>
<mask id="path-37-outside-8_6_71" maskUnits="userSpaceOnUse" x="1550.88" y="125.699" width="76.8893" height="76.4172" fill="black">
<rect fill="white" x="1550.88" y="125.699" width="76.8893" height="76.4172"/>
<path d="M1555.78 151.655L1600.91 130.129L1622.44 175.258L1577.31 196.784L1555.78 151.655Z"/>
</mask>
<path d="M1555.78 151.655L1600.91 130.129L1622.44 175.258L1577.31 196.784L1555.78 151.655Z" fill="#58BE56"/>
<path d="M1555.78 151.655L1554.49 148.947L1550.88 150.669L1552.17 153.377L1555.78 151.655ZM1600.91 130.129L1604.52 128.407L1603.23 125.699L1599.62 127.421L1600.91 130.129ZM1622.44 175.258L1624.16 178.869L1627.77 177.146L1626.05 173.536L1622.44 175.258ZM1577.31 196.784L1573.7 198.506L1575.42 202.116L1579.03 200.394L1577.31 196.784ZM1557.08 154.363L1602.2 132.837L1599.62 127.421L1554.49 148.947L1557.08 154.363ZM1597.3 131.851L1618.83 176.98L1626.05 173.536L1604.52 128.407L1597.3 131.851ZM1620.72 171.648L1575.59 193.174L1579.03 200.394L1624.16 178.869L1620.72 171.648ZM1580.92 195.062L1559.39 149.933L1552.17 153.377L1573.7 198.506L1580.92 195.062Z" fill="black" mask="url(#path-37-outside-8_6_71)"/>
<mask id="path-39-outside-9_6_71" maskUnits="userSpaceOnUse" x="1505.75" y="147.225" width="76.8893" height="76.4172" fill="black">
<rect fill="white" x="1505.75" y="147.225" width="76.8893" height="76.4172"/>
<path d="M1510.66 173.181L1555.78 151.655L1577.31 196.784L1532.18 218.31L1510.66 173.181Z"/>
</mask>
<path d="M1510.66 173.181L1555.78 151.655L1577.31 196.784L1532.18 218.31L1510.66 173.181Z" fill="#FFE600"/>
<path d="M1510.66 173.181L1509.36 170.473L1505.75 172.195L1507.04 174.903L1510.66 173.181ZM1555.78 151.655L1559.39 149.933L1558.1 147.225L1554.49 148.947L1555.78 151.655ZM1577.31 196.784L1579.03 200.394L1582.64 198.672L1580.92 195.062L1577.31 196.784ZM1532.18 218.31L1528.57 220.032L1530.29 223.642L1533.9 221.92L1532.18 218.31ZM1511.95 175.889L1557.08 154.363L1554.49 148.947L1509.36 170.473L1511.95 175.889ZM1552.17 153.377L1573.7 198.506L1580.92 195.062L1559.39 149.933L1552.17 153.377ZM1575.59 193.174L1530.46 214.7L1533.9 221.92L1579.03 200.394L1575.59 193.174ZM1535.79 216.588L1514.27 171.459L1507.04 174.903L1528.57 220.032L1535.79 216.588Z" fill="black" mask="url(#path-39-outside-9_6_71)"/>
</g>
<g opacity="0.25">
<rect x="561.334" y="202.926" width="157" height="157" rx="25.5" transform="rotate(-25.5005 561.334 202.926)" fill="#D9D9D9" stroke="black" stroke-width="7"/>
<path d="M612.934 182.191L612.073 180.386L610.268 181.247L584.996 193.301C573.032 199.008 567.96 213.332 573.666 225.296L585.721 250.568L586.582 252.373L588.387 251.512L633.516 229.986L635.321 229.125L634.46 227.32L612.934 182.191Z" fill="white" stroke="black" stroke-width="4"/>
<path d="M655.397 159.721L653.592 160.582L654.453 162.387L675.979 207.516L676.84 209.321L678.645 208.46L723.774 186.934L725.579 186.073L724.718 184.268L712.664 158.996C706.957 147.032 692.633 141.96 680.669 147.666L655.397 159.721Z" fill="white" stroke="black" stroke-width="4"/>
<rect x="608.463" y="182.108" width="54" height="54" transform="rotate(-25.5005 608.463 182.108)" fill="white" stroke="black" stroke-width="4"/>
<path d="M608.191 293.031L606.386 293.892L607.247 295.697L619.301 320.969C625.008 332.933 639.332 338.005 651.296 332.299L676.568 320.244L678.373 319.383L677.512 317.578L655.986 272.449L655.125 270.644L653.32 271.505L608.191 293.031Z" fill="#58BE56" stroke="black" stroke-width="4"/>
<path d="M698.449 249.979L696.644 250.84L697.505 252.645L719.031 297.774L719.892 299.579L721.697 298.718L746.969 286.664C758.933 280.957 764.005 266.633 758.299 254.669L746.244 229.397L745.383 227.592L743.578 228.453L698.449 249.979Z" fill="#58BE56" stroke="black" stroke-width="4"/>
<rect x="651.515" y="272.366" width="54" height="54" transform="rotate(-25.5005 651.515 272.366)" fill="#58BE56" stroke="black" stroke-width="4"/>
<mask id="path-48-outside-10_6_71" maskUnits="userSpaceOnUse" x="582.624" y="223.751" width="76.8893" height="76.4172" fill="black">
<rect fill="white" x="582.624" y="223.751" width="76.8893" height="76.4172"/>
<path d="M587.526 249.707L632.655 228.181L654.181 273.31L609.052 294.836L587.526 249.707Z"/>
</mask>
<path d="M587.526 249.707L632.655 228.181L654.181 273.31L609.052 294.836L587.526 249.707Z" fill="white"/>
<path d="M587.526 249.707L586.234 246.999L582.624 248.721L583.916 251.429L587.526 249.707ZM632.655 228.181L636.265 226.459L634.974 223.751L631.363 225.473L632.655 228.181ZM654.181 273.31L655.903 276.92L659.513 275.198L657.791 271.588L654.181 273.31ZM609.052 294.836L605.441 296.558L607.164 300.168L610.774 298.446L609.052 294.836ZM588.817 252.415L633.947 230.889L631.363 225.473L586.234 246.999L588.817 252.415ZM629.045 229.903L650.571 275.032L657.791 271.588L636.265 226.459L629.045 229.903ZM652.459 269.7L607.33 291.226L610.774 298.446L655.903 276.92L652.459 269.7ZM612.662 293.114L591.136 247.985L583.916 251.429L605.441 296.558L612.662 293.114Z" fill="black" mask="url(#path-48-outside-10_6_71)"/>
<mask id="path-50-outside-11_6_71" maskUnits="userSpaceOnUse" x="672.882" y="180.699" width="76.8893" height="76.4172" fill="black">
<rect fill="white" x="672.882" y="180.699" width="76.8893" height="76.4172"/>
<path d="M677.784 206.655L722.913 185.129L744.439 230.258L699.31 251.784L677.784 206.655Z"/>
</mask>
<path d="M677.784 206.655L722.913 185.129L744.439 230.258L699.31 251.784L677.784 206.655Z" fill="#58BE56"/>
<path d="M677.784 206.655L676.493 203.947L672.882 205.669L674.174 208.377L677.784 206.655ZM722.913 185.129L726.524 183.407L725.232 180.699L721.622 182.421L722.913 185.129ZM744.439 230.258L746.161 233.869L749.772 232.146L748.049 228.536L744.439 230.258ZM699.31 251.784L695.7 253.506L697.422 257.116L701.032 255.394L699.31 251.784ZM679.076 209.363L724.205 187.837L721.622 182.421L676.493 203.947L679.076 209.363ZM719.303 186.851L740.829 231.98L748.049 228.536L726.524 183.407L719.303 186.851ZM742.717 226.648L697.588 248.174L701.032 255.394L746.161 233.869L742.717 226.648ZM702.92 250.062L681.394 204.933L674.174 208.377L695.7 253.506L702.92 250.062Z" fill="black" mask="url(#path-50-outside-11_6_71)"/>
<mask id="path-52-outside-12_6_71" maskUnits="userSpaceOnUse" x="627.753" y="202.225" width="76.8893" height="76.4172" fill="black">
<rect fill="white" x="627.753" y="202.225" width="76.8893" height="76.4172"/>
<path d="M632.655 228.181L677.784 206.655L699.31 251.784L654.181 273.31L632.655 228.181Z"/>
</mask>
<path d="M632.655 228.181L677.784 206.655L699.31 251.784L654.181 273.31L632.655 228.181Z" fill="#FFE600"/>
<path d="M632.655 228.181L631.363 225.473L627.753 227.195L629.045 229.903L632.655 228.181ZM677.784 206.655L681.394 204.933L680.103 202.225L676.493 203.947L677.784 206.655ZM699.31 251.784L701.032 255.394L704.642 253.672L702.92 250.062L699.31 251.784ZM654.181 273.31L650.571 275.032L652.293 278.642L655.903 276.92L654.181 273.31ZM633.947 230.889L679.076 209.363L676.493 203.947L631.363 225.473L633.947 230.889ZM674.174 208.377L695.7 253.506L702.92 250.062L681.394 204.933L674.174 208.377ZM697.588 248.174L652.459 269.7L655.903 276.92L701.032 255.394L697.588 248.174ZM657.791 271.588L636.265 226.459L629.045 229.903L650.571 275.032L657.791 271.588Z" fill="black" mask="url(#path-52-outside-12_6_71)"/>
</g>
<g opacity="0.25">
<rect x="706.334" y="767.926" width="157" height="157" rx="25.5" transform="rotate(-25.5005 706.334 767.926)" fill="#D9D9D9" stroke="black" stroke-width="7"/>
<path d="M757.934 747.191L757.073 745.386L755.268 746.247L729.996 758.301C718.032 764.008 712.96 778.332 718.666 790.296L730.721 815.568L731.582 817.373L733.387 816.512L778.516 794.986L780.321 794.125L779.46 792.32L757.934 747.191Z" fill="white" stroke="black" stroke-width="4"/>
<path d="M800.397 724.721L798.592 725.582L799.453 727.387L820.979 772.516L821.84 774.321L823.645 773.46L868.774 751.934L870.579 751.073L869.718 749.268L857.664 723.996C851.957 712.032 837.633 706.96 825.669 712.666L800.397 724.721Z" fill="white" stroke="black" stroke-width="4"/>
<rect x="753.463" y="747.108" width="54" height="54" transform="rotate(-25.5005 753.463 747.108)" fill="white" stroke="black" stroke-width="4"/>
<path d="M753.191 858.031L751.386 858.892L752.247 860.697L764.301 885.969C770.008 897.933 784.332 903.005 796.296 897.299L821.568 885.244L823.373 884.383L822.512 882.578L800.986 837.449L800.125 835.644L798.32 836.505L753.191 858.031Z" fill="#58BE56" stroke="black" stroke-width="4"/>
<path d="M843.449 814.979L841.644 815.84L842.505 817.645L864.031 862.774L864.892 864.579L866.697 863.718L891.969 851.664C903.933 845.957 909.005 831.633 903.299 819.669L891.244 794.397L890.383 792.592L888.578 793.453L843.449 814.979Z" fill="#58BE56" stroke="black" stroke-width="4"/>
<rect x="796.515" y="837.366" width="54" height="54" transform="rotate(-25.5005 796.515 837.366)" fill="#58BE56" stroke="black" stroke-width="4"/>
<mask id="path-61-outside-13_6_71" maskUnits="userSpaceOnUse" x="727.624" y="788.751" width="76.8893" height="76.4172" fill="black">
<rect fill="white" x="727.624" y="788.751" width="76.8893" height="76.4172"/>
<path d="M732.526 814.707L777.655 793.181L799.181 838.31L754.052 859.836L732.526 814.707Z"/>
</mask>
<path d="M732.526 814.707L777.655 793.181L799.181 838.31L754.052 859.836L732.526 814.707Z" fill="white"/>
<path d="M732.526 814.707L731.234 811.999L727.624 813.721L728.916 816.429L732.526 814.707ZM777.655 793.181L781.265 791.459L779.974 788.751L776.363 790.473L777.655 793.181ZM799.181 838.31L800.903 841.92L804.513 840.198L802.791 836.588L799.181 838.31ZM754.052 859.836L750.441 861.558L752.164 865.168L755.774 863.446L754.052 859.836ZM733.817 817.415L778.947 795.889L776.363 790.473L731.234 811.999L733.817 817.415ZM774.045 794.903L795.571 840.032L802.791 836.588L781.265 791.459L774.045 794.903ZM797.459 834.7L752.33 856.226L755.774 863.446L800.903 841.92L797.459 834.7ZM757.662 858.114L736.136 812.985L728.916 816.429L750.441 861.558L757.662 858.114Z" fill="black" mask="url(#path-61-outside-13_6_71)"/>
<mask id="path-63-outside-14_6_71" maskUnits="userSpaceOnUse" x="817.882" y="745.699" width="76.8893" height="76.4172" fill="black">
<rect fill="white" x="817.882" y="745.699" width="76.8893" height="76.4172"/>
<path d="M822.784 771.655L867.913 750.129L889.439 795.258L844.31 816.784L822.784 771.655Z"/>
</mask>
<path d="M822.784 771.655L867.913 750.129L889.439 795.258L844.31 816.784L822.784 771.655Z" fill="#58BE56"/>
<path d="M822.784 771.655L821.493 768.947L817.882 770.669L819.174 773.377L822.784 771.655ZM867.913 750.129L871.524 748.407L870.232 745.699L866.622 747.421L867.913 750.129ZM889.439 795.258L891.161 798.869L894.772 797.146L893.049 793.536L889.439 795.258ZM844.31 816.784L840.7 818.506L842.422 822.117L846.032 820.394L844.31 816.784ZM824.076 774.363L869.205 752.837L866.622 747.421L821.493 768.947L824.076 774.363ZM864.303 751.851L885.829 796.98L893.049 793.536L871.524 748.407L864.303 751.851ZM887.717 791.648L842.588 813.174L846.032 820.394L891.161 798.869L887.717 791.648ZM847.92 815.062L826.394 769.933L819.174 773.377L840.7 818.506L847.92 815.062Z" fill="black" mask="url(#path-63-outside-14_6_71)"/>
<mask id="path-65-outside-15_6_71" maskUnits="userSpaceOnUse" x="772.753" y="767.225" width="76.8893" height="76.4172" fill="black">
<rect fill="white" x="772.753" y="767.225" width="76.8893" height="76.4172"/>
<path d="M777.655 793.181L822.784 771.655L844.31 816.784L799.181 838.31L777.655 793.181Z"/>
</mask>
<path d="M777.655 793.181L822.784 771.655L844.31 816.784L799.181 838.31L777.655 793.181Z" fill="#FFE600"/>
<path d="M777.655 793.181L776.363 790.473L772.753 792.195L774.045 794.903L777.655 793.181ZM822.784 771.655L826.394 769.933L825.103 767.225L821.493 768.947L822.784 771.655ZM844.31 816.784L846.032 820.394L849.642 818.672L847.92 815.062L844.31 816.784ZM799.181 838.31L795.571 840.032L797.293 843.642L800.903 841.92L799.181 838.31ZM778.947 795.889L824.076 774.363L821.493 768.947L776.363 790.473L778.947 795.889ZM819.174 773.377L840.7 818.506L847.92 815.062L826.394 769.933L819.174 773.377ZM842.588 813.174L797.459 834.7L800.903 841.92L846.032 820.394L842.588 813.174ZM802.791 836.588L781.265 791.459L774.045 794.903L795.571 840.032L802.791 836.588Z" fill="black" mask="url(#path-65-outside-15_6_71)"/>
</g>
<g opacity="0.25">
<rect x="281.269" y="563.296" width="157" height="157" rx="25.5" transform="rotate(26.8757 281.269 563.296)" fill="#D9D9D9" stroke="black" stroke-width="7"/>
<path d="M329.192 591.507L330.096 589.723L328.312 588.819L303.336 576.161C291.513 570.169 277.071 574.896 271.079 586.72L258.422 611.695L257.518 613.479L259.302 614.383L303.901 636.986L305.685 637.89L306.589 636.106L329.192 591.507Z" fill="white" stroke="black" stroke-width="4"/>
<path d="M372.912 611.422L371.128 610.518L370.223 612.302L347.621 656.901L346.717 658.685L348.501 659.589L393.1 682.192L394.884 683.096L395.788 681.312L408.446 656.336C414.438 644.513 409.71 630.071 397.887 624.079L372.912 611.422Z" fill="white" stroke="black" stroke-width="4"/>
<rect x="326.528" y="587.915" width="54" height="54" transform="rotate(26.8757 326.528 587.915)" fill="white" stroke="black" stroke-width="4"/>
<path d="M238.507 655.415L236.723 654.511L235.819 656.295L223.161 681.27C217.169 693.094 221.897 707.536 233.72 713.528L258.695 726.185L260.479 727.089L261.383 725.305L283.986 680.706L284.89 678.922L283.106 678.018L238.507 655.415Z" fill="#58BE56" stroke="black" stroke-width="4"/>
<path d="M327.706 700.621L325.922 699.717L325.018 701.5L302.415 746.1L301.511 747.884L303.295 748.788L328.27 761.446C340.094 767.438 354.536 762.71 360.528 750.887L373.185 725.912L374.089 724.128L372.305 723.223L327.706 700.621Z" fill="#58BE56" stroke="black" stroke-width="4"/>
<rect x="281.322" y="677.114" width="54" height="54" transform="rotate(26.8757 281.322 677.114)" fill="#58BE56" stroke="black" stroke-width="4"/>
<mask id="path-74-outside-16_6_71" maskUnits="userSpaceOnUse" x="232.227" y="608.115" width="77.5026" height="77.0627" fill="black">
<rect fill="white" x="232.227" y="608.115" width="77.5026" height="77.0627"/>
<path d="M260.206 612.599L304.805 635.202L282.202 679.802L237.603 657.199L260.206 612.599Z"/>
</mask>
<path d="M260.206 612.599L304.805 635.202L282.202 679.802L237.603 657.199L260.206 612.599Z" fill="white"/>
<path d="M260.206 612.599L261.562 609.923L257.994 608.115L256.638 610.791L260.206 612.599ZM304.805 635.202L308.373 637.011L309.729 634.335L306.161 632.526L304.805 635.202ZM282.202 679.802L280.394 683.37L283.962 685.178L285.77 681.61L282.202 679.802ZM237.603 657.199L234.035 655.391L232.227 658.959L235.795 660.767L237.603 657.199ZM258.85 615.275L303.449 637.878L306.161 632.526L261.562 609.923L258.85 615.275ZM301.237 633.394L278.634 677.994L285.77 681.61L308.373 637.011L301.237 633.394ZM284.011 676.234L239.411 653.631L235.795 660.767L280.394 683.37L284.011 676.234ZM241.171 659.007L263.774 614.408L256.638 610.791L234.035 655.391L241.171 659.007Z" fill="black" mask="url(#path-74-outside-16_6_71)"/>
<mask id="path-76-outside-17_6_71" maskUnits="userSpaceOnUse" x="321.426" y="653.321" width="77.5026" height="77.0627" fill="black">
<rect fill="white" x="321.426" y="653.321" width="77.5026" height="77.0627"/>
<path d="M349.405 657.805L394.004 680.408L371.401 725.007L326.802 702.405L349.405 657.805Z"/>
</mask>
<path d="M349.405 657.805L394.004 680.408L371.401 725.007L326.802 702.405L349.405 657.805Z" fill="#58BE56"/>
<path d="M349.405 657.805L350.761 655.129L347.193 653.321L345.837 655.997L349.405 657.805ZM394.004 680.408L397.572 682.216L398.928 679.54L395.36 677.732L394.004 680.408ZM371.401 725.007L369.593 728.575L373.161 730.384L374.969 726.816L371.401 725.007ZM326.802 702.405L323.234 700.596L321.426 704.164L324.994 705.973L326.802 702.405ZM348.048 660.481L392.648 683.084L395.36 677.732L350.761 655.129L348.048 660.481ZM390.436 678.6L367.833 723.199L374.969 726.816L397.572 682.216L390.436 678.6ZM373.209 721.44L328.61 698.837L324.994 705.973L369.593 728.575L373.209 721.44ZM330.37 704.213L352.973 659.613L345.837 655.997L323.234 700.596L330.37 704.213Z" fill="black" mask="url(#path-76-outside-17_6_71)"/>
<mask id="path-78-outside-18_6_71" maskUnits="userSpaceOnUse" x="276.826" y="630.718" width="77.5026" height="77.0627" fill="black">
<rect fill="white" x="276.826" y="630.718" width="77.5026" height="77.0627"/>
<path d="M304.805 635.202L349.405 657.805L326.802 702.405L282.202 679.802L304.805 635.202Z"/>
</mask>
<path d="M304.805 635.202L349.405 657.805L326.802 702.405L282.202 679.802L304.805 635.202Z" fill="#FFE600"/>
<path d="M304.805 635.202L306.161 632.526L302.593 630.718L301.237 633.394L304.805 635.202ZM349.405 657.805L352.973 659.613L354.329 656.937L350.761 655.129L349.405 657.805ZM326.802 702.405L324.994 705.973L328.561 707.781L330.37 704.213L326.802 702.405ZM282.202 679.802L278.634 677.994L276.826 681.562L280.394 683.37L282.202 679.802ZM303.449 637.878L348.048 660.481L350.761 655.129L306.161 632.526L303.449 637.878ZM345.837 655.997L323.234 700.596L330.37 704.213L352.973 659.613L345.837 655.997ZM328.61 698.837L284.011 676.234L280.394 683.37L324.994 705.973L328.61 698.837ZM285.77 681.61L308.373 637.011L301.237 633.394L278.634 677.994L285.77 681.61Z" fill="black" mask="url(#path-78-outside-18_6_71)"/>
</g>
</svg>
