<svg width="1920" height="1080" viewBox="0 0 1920 1080" fill="none" xmlns="http://www.w3.org/2000/svg">
<rect y="0.00012207" width="1920" height="1080" fill="black"/>
<g opacity="0.25">
<rect x="187.334" y="312.926" width="157" height="157" rx="25.5" transform="rotate(-25.5005 187.334 312.926)" fill="#D9D9D9" stroke="black" stroke-width="7"/>
<path d="M238.934 292.191L238.073 290.386L236.268 291.247L210.996 303.301C199.032 309.008 193.96 323.332 199.666 335.296L211.721 360.568L212.582 362.373L214.387 361.512L259.516 339.986L261.321 339.125L260.46 337.32L238.934 292.191Z" fill="white" stroke="black" stroke-width="4"/>
<path d="M281.397 269.721L279.592 270.582L280.453 272.387L301.979 317.516L302.84 319.321L304.645 318.46L349.774 296.934L351.579 296.073L350.718 294.268L338.664 268.996C332.957 257.032 318.633 251.96 306.669 257.666L281.397 269.721Z" fill="white" stroke="black" stroke-width="4"/>
<rect x="234.463" y="292.108" width="54" height="54" transform="rotate(-25.5005 234.463 292.108)" fill="white" stroke="black" stroke-width="4"/>
<path d="M234.191 403.031L232.386 403.892L233.247 405.697L245.301 430.969C251.008 442.933 265.332 448.005 277.296 442.299L302.568 430.244L304.373 429.383L303.512 427.578L281.986 382.449L281.125 380.644L279.32 381.505L234.191 403.031Z" fill="#58BE56" stroke="black" stroke-width="4"/>
<path d="M324.449 359.979L322.644 360.84L323.505 362.645L345.031 407.774L345.892 409.579L347.697 408.718L372.969 396.664C384.933 390.957 390.005 376.633 384.299 364.669L372.244 339.397L371.383 337.592L369.578 338.453L324.449 359.979Z" fill="#58BE56" stroke="black" stroke-width="4"/>
<rect x="277.515" y="382.366" width="54" height="54" transform="rotate(-25.5005 277.515 382.366)" fill="#58BE56" stroke="black" stroke-width="4"/>
<mask id="path-9-outside-1_6_71" maskUnits="userSpaceOnUse" x="208.624" y="333.751" width="76.8893" height="76.4172" fill="black">
<rect fill="white" x="208.624" y="333.751" width="76.8893" height="76.4172"/>
<path d="M213.526 359.707L258.655 338.181L280.181 383.31L235.052 404.836L213.526 359.707Z"/>
</mask>
<path d="M213.526 359.707L258.655 338.181L280.181 383.31L235.052 404.836L213.526 359.707Z" fill="white"/>
<path d="M213.526 359.707L212.234 356.999L208.624 358.721L209.916 361.429L213.526 359.707ZM258.655 338.181L262.265 336.459L260.974 333.751L257.363 335.473L258.655 338.181ZM280.181 383.31L281.903 386.92L285.513 385.198L283.791 381.588L280.181 383.31ZM235.052 404.836L231.442 406.558L233.164 410.168L236.774 408.446L235.052 404.836ZM214.817 362.415L259.947 340.889L257.363 335.473L212.234 356.999L214.817 362.415ZM255.045 339.903L276.571 385.032L283.791 381.588L262.265 336.459L255.045 339.903ZM278.459 379.7L233.33 401.226L236.774 408.446L281.903 386.92L278.459 379.7ZM238.662 403.114L217.136 357.985L209.916 361.429L231.442 406.558L238.662 403.114Z" fill="black" mask="url(#path-9-outside-1_6_71)"/>
<mask id="path-11-outside-2_6_71" maskUnits="userSpaceOnUse" x="298.882" y="290.699" width="76.8893" height="76.4172" fill="black">
<rect fill="white" x="298.882" y="290.699" width="76.8893" height="76.4172"/>
<path d="M303.784 316.655L348.913 295.129L370.439 340.258L325.31 361.784L303.784 316.655Z"/>
</mask>
<path d="M303.784 316.655L348.913 295.129L370.439 340.258L325.31 361.784L303.784 316.655Z" fill="#58BE56"/>
<path d="M303.784 316.655L302.493 313.947L298.882 315.669L300.174 318.377L303.784 316.655ZM348.913 295.129L352.524 293.407L351.232 290.699L347.622 292.421L348.913 295.129ZM370.439 340.258L372.161 343.869L375.772 342.146L374.049 338.536L370.439 340.258ZM325.31 361.784L321.7 363.506L323.422 367.116L327.032 365.394L325.31 361.784ZM305.076 319.363L350.205 297.837L347.622 292.421L302.493 313.947L305.076 319.363ZM345.303 296.851L366.829 341.98L374.049 338.536L352.524 293.407L345.303 296.851ZM368.717 336.648L323.588 358.174L327.032 365.394L372.161 343.869L368.717 336.648ZM328.92 360.062L307.394 314.933L300.174 318.377L321.7 363.506L328.92 360.062Z" fill="black" mask="url(#path-11-outside-2_6_71)"/>
<mask id="path-13-outside-3_6_71" maskUnits="userSpaceOnUse" x="253.753" y="312.225" width="76.8893" height="76.4172" fill="black">
<rect fill="white" x="253.753" y="312.225" width="76.8893" height="76.4172"/>
<path d="M258.655 338.181L303.784 316.655L325.31 361.784L280.181 383.31L258.655 338.181Z"/>
</mask>
<path d="M258.655 338.181L303.784 316.655L325.31 361.784L280.181 383.31L258.655 338.181Z" fill="#FFE600"/>
<path d="M258.655 338.181L257.363 335.473L253.753 337.195L255.045 339.903L258.655 338.181ZM303.784 316.655L307.394 314.933L306.103 312.225L302.493 313.947L303.784 316.655ZM325.31 361.784L327.032 365.394L330.642 363.672L328.92 360.062L325.31 361.784ZM280.181 383.31L276.571 385.032L278.293 388.642L281.903 386.92L280.181 383.31ZM259.947 340.889L305.076 319.363L302.493 313.947L257.363 335.473L259.947 340.889ZM300.174 318.377L321.7 363.506L328.92 360.062L307.394 314.933L300.174 318.377ZM323.588 358.174L278.459 379.7L281.903 386.92L327.032 365.394L323.588 358.174ZM283.791 381.588L262.265 336.459L255.045 339.903L276.571 385.032L283.791 381.588Z" fill="black" mask="url(#path-13-outside-3_6_71)"/>
</g>
<g opacity="0.25">
<rect x="1715.33" y="423.926" width="157" height="157" rx="25.5" transform="rotate(-25.5005 1715.33 423.926)" fill="#D9D9D9" stroke="black" stroke-width="7"/>
<path d="M1766.93 403.191L1766.07 401.386L1764.27 402.247L1739 414.301C1727.03 420.008 1721.96 434.332 1727.67 446.296L1739.72 471.568L1740.58 473.373L1742.39 472.512L1787.52 450.986L1789.32 450.125L1788.46 448.32L1766.93 403.191Z" fill="white" stroke="black" stroke-width="4"/>
<path d="M1809.4 380.721L1807.59 381.582L1808.45 383.387L1829.98 428.516L1830.84 430.321L1832.65 429.46L1877.77 407.934L1879.58 407.073L1878.72 405.268L1866.66 379.996C1860.96 368.032 1846.63 362.96 1834.67 368.666L1809.4 380.721Z" fill="white" stroke="black" stroke-width="4"/>
<rect x="1762.46" y="403.108" width="54" height="54" transform="rotate(-25.5005 1762.46 403.108)" fill="white" stroke="black" stroke-width="4"/>
<path d="M1762.19 514.031L1760.39 514.892L1761.25 516.697L1773.3 541.969C1779.01 553.933 1793.33 559.005 1805.3 553.299L1830.57 541.244L1832.37 540.383L1831.51 538.578L1809.99 493.449L1809.13 491.644L1807.32 492.505L1762.19 514.031Z" fill="#58BE56" stroke="black" stroke-width="4"/>
<path d="M1852.45 470.979L1850.64 471.84L1851.5 473.645L1873.03 518.774L1873.89 520.579L1875.7 519.718L1900.97 507.664C1912.93 501.957 1918.01 487.633 1912.3 475.669L1900.24 450.397L1899.38 448.592L1897.58 449.453L1852.45 470.979Z" fill="#58BE56" stroke="black" stroke-width="4"/>
<rect x="1805.51" y="493.366" width="54" height="54" transform="rotate(-25.5005 1805.51 493.366)" fill="#58BE56" stroke="black" stroke-width="4"/>
<mask id="path-22-outside-4_6_71" maskUnits="userSpaceOnUse" x="1736.62" y="444.751" width="76.8893" height="76.4172" fill="black">
<rect fill="white" x="1736.62" y="444.751" width="76.8893" height="76.4172"/>
<path d="M1741.53 470.707L1786.66 449.181L1808.18 494.31L1763.05 515.836L1741.53 470.707Z"/>
</mask>
<path d="M1741.53 470.707L1786.66 449.181L1808.18 494.31L1763.05 515.836L1741.53 470.707Z" fill="white"/>
<path d="M1741.53 470.707L1740.23 467.999L1736.62 469.721L1737.92 472.429L1741.53 470.707ZM1786.66 449.181L1790.27 447.459L1788.97 444.751L1785.36 446.473L1786.66 449.181ZM1808.18 494.31L1809.9 497.92L1813.51 496.198L1811.79 492.588L1808.18 494.31ZM1763.05 515.836L1759.44 517.558L1761.16 521.168L1764.77 519.446L1763.05 515.836ZM1742.82 473.415L1787.95 451.889L1785.36 446.473L1740.23 467.999L1742.82 473.415ZM1783.04 450.903L1804.57 496.032L1811.79 492.588L1790.27 447.459L1783.04 450.903ZM1806.46 490.7L1761.33 512.226L1764.77 519.446L1809.9 497.92L1806.46 490.7ZM1766.66 514.114L1745.14 468.985L1737.92 472.429L1759.44 517.558L1766.66 514.114Z" fill="black" mask="url(#path-22-outside-4_6_71)"/>
<mask id="path-24-outside-5_6_71" maskUnits="userSpaceOnUse" x="1826.88" y="401.699" width="76.8893" height="76.4172" fill="black">
<rect fill="white" x="1826.88" y="401.699" width="76.8893" height="76.4172"/>
<path d="M1831.78 427.655L1876.91 406.129L1898.44 451.258L1853.31 472.784L1831.78 427.655Z"/>
</mask>
<path d="M1831.78 427.655L1876.91 406.129L1898.44 451.258L1853.31 472.784L1831.78 427.655Z" fill="#58BE56"/>
<path d="M1831.78 427.655L1830.49 424.947L1826.88 426.669L1828.17 429.377L1831.78 427.655ZM1876.91 406.129L1880.52 404.407L1879.23 401.699L1875.62 403.421L1876.91 406.129ZM1898.44 451.258L1900.16 454.869L1903.77 453.146L1902.05 449.536L1898.44 451.258ZM1853.31 472.784L1849.7 474.506L1851.42 478.116L1855.03 476.394L1853.31 472.784ZM1833.08 430.363L1878.2 408.837L1875.62 403.421L1830.49 424.947L1833.08 430.363ZM1873.3 407.851L1894.83 452.98L1902.05 449.536L1880.52 404.407L1873.3 407.851ZM1896.72 447.648L1851.59 469.174L1855.03 476.394L1900.16 454.869L1896.72 447.648ZM1856.92 471.062L1835.39 425.933L1828.17 429.377L1849.7 474.506L1856.92 471.062Z" fill="black" mask="url(#path-24-outside-5_6_71)"/>
<mask id="path-26-outside-6_6_71" maskUnits="userSpaceOnUse" x="1781.75" y="423.225" width="76.8893" height="76.4172" fill="black">
<rect fill="white" x="1781.75" y="423.225" width="76.8893" height="76.4172"/>
<path d="M1786.66 449.181L1831.78 427.655L1853.31 472.784L1808.18 494.31L1786.66 449.181Z"/>
</mask>
<path d="M1786.66 449.181L1831.78 427.655L1853.31 472.784L1808.18 494.31L1786.66 449.181Z" fill="#FFE600"/>
<path d="M1786.66 449.181L1785.36 446.473L1781.75 448.195L1783.04 450.903L1786.66 449.181ZM1831.78 427.655L1835.39 425.933L1834.1 423.225L1830.49 424.947L1831.78 427.655ZM1853.31 472.784L1855.03 476.394L1858.64 474.672L1856.92 471.062L1853.31 472.784ZM1808.18 494.31L1804.57 496.032L1806.29 499.642L1809.9 497.92L1808.18 494.31ZM1787.95 451.889L1833.08 430.363L1830.49 424.947L1785.36 446.473L1787.95 451.889ZM1828.17 429.377L1849.7 474.506L1856.92 471.062L1835.39 425.933L1828.17 429.377ZM1851.59 469.174L1806.46 490.7L1809.9 497.92L1855.03 476.394L1851.59 469.174ZM1811.79 492.588L1790.27 447.459L1783.04 450.903L1804.57 496.032L1811.79 492.588Z" fill="black" mask="url(#path-26-outside-6_6_71)"/>
</g>
<g opacity="0.25">
<rect x="808.334" y="449.926" width="157" height="157" rx="25.5" transform="rotate(-25.5005 808.334 449.926)" fill="#D9D9D9" stroke="black" stroke-width="7"/>
<path d="M859.934 429.191L859.073 427.386L857.268 428.247L831.996 440.301C820.032 446.008 814.96 460.332 820.666 472.296L832.721 497.568L833.582 499.373L835.387 498.512L880.516 476.986L882.321 476.125L881.46 474.32L859.934 429.191Z" fill="white" stroke="black" stroke-width="4"/>
<path d="M902.397 406.721L900.592 407.582L901.453 409.387L922.979 454.516L923.84 456.321L925.645 455.46L970.774 433.934L972.579 433.073L971.718 431.268L959.664 405.996C953.957 394.032 939.633 388.96 927.669 394.666L902.397 406.721Z" fill="white" stroke="black" stroke-width="4"/>
<rect x="855.463" y="429.108" width="54" height="54" transform="rotate(-25.5005 855.463 429.108)" fill="white" stroke="black" stroke-width="4"/>
<path d="M855.191 540.031L853.386 540.892L854.247 542.697L866.301 567.969C872.008 579.933 886.332 585.005 898.296 579.299L923.568 567.244L925.373 566.383L924.512 564.578L902.986 519.449L902.125 517.644L900.32 518.505L855.191 540.031Z" fill="#58BE56" stroke="black" stroke-width="4"/>
<path d="M945.449 496.979L943.644 497.84L944.505 499.645L966.031 544.774L966.892 546.579L968.697 545.718L993.969 533.664C1005.93 527.957 1011.01 513.633 1005.3 501.669L993.244 476.397L992.383 474.592L990.578 475.453L945.449 496.979Z" fill="#58BE56" stroke="black" stroke-width="4"/>
<rect x="898.515" y="519.366" width="54" height="54" transform="rotate(-25.5005 898.515 519.366)" fill="#58BE56" stroke="black" stroke-width="4"/>
<mask id="path-35-outside-7_6_71" maskUnits="userSpaceOnUse" x="829.624" y="470.751" width="76.8893" height="76.4172" fill="black">
<rect fill="white" x="829.624" y="470.751" width="76.8893" height="76.4172"/>
<path d="M834.526 496.707L879.655 475.181L901.181 520.31L856.052 541.836L834.526 496.707Z"/>
</mask>
<path d="M834.526 496.707L879.655 475.181L901.181 520.31L856.052 541.836L834.526 496.707Z" fill="white"/>
<path d="M834.526 496.707L833.234 493.999L829.624 495.721L830.916 498.429L834.526 496.707ZM879.655 475.181L883.265 473.459L881.974 470.751L878.363 472.473L879.655 475.181ZM901.181 520.31L902.903 523.92L906.513 522.198L904.791 518.588L901.181 520.31ZM856.052 541.836L852.441 543.558L854.164 547.168L857.774 545.446L856.052 541.836ZM835.817 499.415L880.947 477.889L878.363 472.473L833.234 493.999L835.817 499.415ZM876.045 476.903L897.571 522.032L904.791 518.588L883.265 473.459L876.045 476.903ZM899.459 516.7L854.33 538.226L857.774 545.446L902.903 523.92L899.459 516.7ZM859.662 540.114L838.136 494.985L830.916 498.429L852.441 543.558L859.662 540.114Z" fill="black" mask="url(#path-35-outside-7_6_71)"/>
<mask id="path-37-outside-8_6_71" maskUnits="userSpaceOnUse" x="919.882" y="427.699" width="76.8893" height="76.4172" fill="black">
<rect fill="white" x="919.882" y="427.699" width="76.8893" height="76.4172"/>
<path d="M924.784 453.655L969.913 432.129L991.439 477.258L946.31 498.784L924.784 453.655Z"/>
</mask>
<path d="M924.784 453.655L969.913 432.129L991.439 477.258L946.31 498.784L924.784 453.655Z" fill="#58BE56"/>
<path d="M924.784 453.655L923.493 450.947L919.882 452.669L921.174 455.377L924.784 453.655ZM969.913 432.129L973.524 430.407L972.232 427.699L968.622 429.421L969.913 432.129ZM991.439 477.258L993.161 480.869L996.772 479.146L995.049 475.536L991.439 477.258ZM946.31 498.784L942.7 500.506L944.422 504.116L948.032 502.394L946.31 498.784ZM926.076 456.363L971.205 434.837L968.622 429.421L923.493 450.947L926.076 456.363ZM966.303 433.851L987.829 478.98L995.049 475.536L973.524 430.407L966.303 433.851ZM989.717 473.648L944.588 495.174L948.032 502.394L993.161 480.869L989.717 473.648ZM949.92 497.062L928.394 451.933L921.174 455.377L942.7 500.506L949.92 497.062Z" fill="black" mask="url(#path-37-outside-8_6_71)"/>
<mask id="path-39-outside-9_6_71" maskUnits="userSpaceOnUse" x="874.753" y="449.225" width="76.8893" height="76.4172" fill="black">
<rect fill="white" x="874.753" y="449.225" width="76.8893" height="76.4172"/>
<path d="M879.655 475.181L924.784 453.655L946.31 498.784L901.181 520.31L879.655 475.181Z"/>
</mask>
<path d="M879.655 475.181L924.784 453.655L946.31 498.784L901.181 520.31L879.655 475.181Z" fill="#FFE600"/>
<path d="M879.655 475.181L878.363 472.473L874.753 474.195L876.045 476.903L879.655 475.181ZM924.784 453.655L928.394 451.933L927.103 449.225L923.493 450.947L924.784 453.655ZM946.31 498.784L948.032 502.394L951.642 500.672L949.92 497.062L946.31 498.784ZM901.181 520.31L897.571 522.032L899.293 525.642L902.903 523.92L901.181 520.31ZM880.947 477.889L926.076 456.363L923.493 450.947L878.363 472.473L880.947 477.889ZM921.174 455.377L942.7 500.506L949.92 497.062L928.394 451.933L921.174 455.377ZM944.588 495.174L899.459 516.7L902.903 523.92L948.032 502.394L944.588 495.174ZM904.791 518.588L883.265 473.459L876.045 476.903L897.571 522.032L904.791 518.588Z" fill="black" mask="url(#path-39-outside-9_6_71)"/>
</g>
<g opacity="0.25">
<rect x="1103.33" y="878.926" width="157" height="157" rx="25.5" transform="rotate(-25.5005 1103.33 878.926)" fill="#D9D9D9" stroke="black" stroke-width="7"/>
<path d="M1154.93 858.191L1154.07 856.386L1152.27 857.247L1127 869.301C1115.03 875.008 1109.96 889.332 1115.67 901.296L1127.72 926.568L1128.58 928.373L1130.39 927.512L1175.52 905.986L1177.32 905.125L1176.46 903.32L1154.93 858.191Z" fill="white" stroke="black" stroke-width="4"/>
<path d="M1197.4 835.721L1195.59 836.582L1196.45 838.387L1217.98 883.516L1218.84 885.321L1220.65 884.46L1265.77 862.934L1267.58 862.073L1266.72 860.268L1254.66 834.996C1248.96 823.032 1234.63 817.96 1222.67 823.666L1197.4 835.721Z" fill="white" stroke="black" stroke-width="4"/>
<rect x="1150.46" y="858.108" width="54" height="54" transform="rotate(-25.5005 1150.46 858.108)" fill="white" stroke="black" stroke-width="4"/>
<path d="M1150.19 969.031L1148.39 969.892L1149.25 971.697L1161.3 996.969C1167.01 1008.93 1181.33 1014.01 1193.3 1008.3L1218.57 996.244L1220.37 995.383L1219.51 993.578L1197.99 948.449L1197.13 946.644L1195.32 947.505L1150.19 969.031Z" fill="#58BE56" stroke="black" stroke-width="4"/>
<path d="M1240.45 925.979L1238.64 926.84L1239.5 928.645L1261.03 973.774L1261.89 975.579L1263.7 974.718L1288.97 962.664C1300.93 956.957 1306.01 942.633 1300.3 930.669L1288.24 905.397L1287.38 903.592L1285.58 904.453L1240.45 925.979Z" fill="#58BE56" stroke="black" stroke-width="4"/>
<rect x="1193.51" y="948.366" width="54" height="54" transform="rotate(-25.5005 1193.51 948.366)" fill="#58BE56" stroke="black" stroke-width="4"/>
<mask id="path-48-outside-10_6_71" maskUnits="userSpaceOnUse" x="1124.62" y="899.751" width="76.8893" height="76.4172" fill="black">
<rect fill="white" x="1124.62" y="899.751" width="76.8893" height="76.4172"/>
<path d="M1129.53 925.707L1174.66 904.181L1196.18 949.31L1151.05 970.836L1129.53 925.707Z"/>
</mask>
<path d="M1129.53 925.707L1174.66 904.181L1196.18 949.31L1151.05 970.836L1129.53 925.707Z" fill="white"/>
<path d="M1129.53 925.707L1128.23 922.999L1124.62 924.721L1125.92 927.429L1129.53 925.707ZM1174.66 904.181L1178.27 902.459L1176.97 899.751L1173.36 901.473L1174.66 904.181ZM1196.18 949.31L1197.9 952.92L1201.51 951.198L1199.79 947.588L1196.18 949.31ZM1151.05 970.836L1147.44 972.558L1149.16 976.168L1152.77 974.446L1151.05 970.836ZM1130.82 928.415L1175.95 906.889L1173.36 901.473L1128.23 922.999L1130.82 928.415ZM1171.04 905.903L1192.57 951.032L1199.79 947.588L1178.27 902.459L1171.04 905.903ZM1194.46 945.7L1149.33 967.226L1152.77 974.446L1197.9 952.92L1194.46 945.7ZM1154.66 969.114L1133.14 923.985L1125.92 927.429L1147.44 972.558L1154.66 969.114Z" fill="black" mask="url(#path-48-outside-10_6_71)"/>
<mask id="path-50-outside-11_6_71" maskUnits="userSpaceOnUse" x="1214.88" y="856.699" width="76.8893" height="76.4172" fill="black">
<rect fill="white" x="1214.88" y="856.699" width="76.8893" height="76.4172"/>
<path d="M1219.78 882.655L1264.91 861.129L1286.44 906.258L1241.31 927.784L1219.78 882.655Z"/>
</mask>
<path d="M1219.78 882.655L1264.91 861.129L1286.44 906.258L1241.31 927.784L1219.78 882.655Z" fill="#58BE56"/>
<path d="M1219.78 882.655L1218.49 879.947L1214.88 881.669L1216.17 884.377L1219.78 882.655ZM1264.91 861.129L1268.52 859.407L1267.23 856.699L1263.62 858.421L1264.91 861.129ZM1286.44 906.258L1288.16 909.869L1291.77 908.146L1290.05 904.536L1286.44 906.258ZM1241.31 927.784L1237.7 929.506L1239.42 933.117L1243.03 931.394L1241.31 927.784ZM1221.08 885.363L1266.2 863.837L1263.62 858.421L1218.49 879.947L1221.08 885.363ZM1261.3 862.851L1282.83 907.98L1290.05 904.536L1268.52 859.407L1261.3 862.851ZM1284.72 902.648L1239.59 924.174L1243.03 931.394L1288.16 909.869L1284.72 902.648ZM1244.92 926.062L1223.39 880.933L1216.17 884.377L1237.7 929.506L1244.92 926.062Z" fill="black" mask="url(#path-50-outside-11_6_71)"/>
<mask id="path-52-outside-12_6_71" maskUnits="userSpaceOnUse" x="1169.75" y="878.225" width="76.8893" height="76.4172" fill="black">
<rect fill="white" x="1169.75" y="878.225" width="76.8893" height="76.4172"/>
<path d="M1174.65 904.181L1219.78 882.655L1241.31 927.784L1196.18 949.31L1174.65 904.181Z"/>
</mask>
<path d="M1174.65 904.181L1219.78 882.655L1241.31 927.784L1196.18 949.31L1174.65 904.181Z" fill="#FFE600"/>
<path d="M1174.65 904.181L1173.36 901.473L1169.75 903.195L1171.04 905.903L1174.65 904.181ZM1219.78 882.655L1223.39 880.933L1222.1 878.225L1218.49 879.947L1219.78 882.655ZM1241.31 927.784L1243.03 931.394L1246.64 929.672L1244.92 926.062L1241.31 927.784ZM1196.18 949.31L1192.57 951.032L1194.29 954.642L1197.9 952.92L1196.18 949.31ZM1175.95 906.889L1221.08 885.363L1218.49 879.947L1173.36 901.473L1175.95 906.889ZM1216.17 884.377L1237.7 929.506L1244.92 926.062L1223.39 880.933L1216.17 884.377ZM1239.59 924.174L1194.46 945.7L1197.9 952.92L1243.03 931.394L1239.59 924.174ZM1199.79 947.588L1178.27 902.459L1171.04 905.903L1192.57 951.032L1199.79 947.588Z" fill="black" mask="url(#path-52-outside-12_6_71)"/>
</g>
<g opacity="0.25">
<rect x="1.33415" y="937.926" width="157" height="157" rx="25.5" transform="rotate(-25.5005 1.33415 937.926)" fill="#D9D9D9" stroke="black" stroke-width="7"/>
<path d="M52.9343 917.191L52.0732 915.386L50.2681 916.247L24.9958 928.301C13.0322 934.008 7.95979 948.332 13.6662 960.296L25.7207 985.568L26.5818 987.373L28.3869 986.512L73.516 964.986L75.3212 964.125L74.4602 962.32L52.9343 917.191Z" fill="white" stroke="black" stroke-width="4"/>
<path d="M95.3971 894.721L93.592 895.582L94.453 897.387L115.979 942.516L116.84 944.321L118.645 943.46L163.774 921.934L165.579 921.073L164.718 919.268L152.664 893.996C146.957 882.032 132.633 876.96 120.669 882.666L95.3971 894.721Z" fill="white" stroke="black" stroke-width="4"/>
<rect x="48.4629" y="917.108" width="54" height="54" transform="rotate(-25.5005 48.4629 917.108)" fill="white" stroke="black" stroke-width="4"/>
<path d="M48.1908 1028.03L46.3856 1028.89L47.2467 1030.7L59.3012 1055.97C65.0076 1067.93 79.332 1073.01 91.2956 1067.3L116.568 1055.24L118.373 1054.38L117.512 1052.58L95.9861 1007.45L95.125 1005.64L93.3199 1006.5L48.1908 1028.03Z" fill="#58BE56" stroke="black" stroke-width="4"/>
<path d="M138.449 984.979L136.644 985.84L137.505 987.645L159.031 1032.77L159.892 1034.58L161.697 1033.72L186.969 1021.66C198.933 1015.96 204.005 1001.63 198.299 989.669L186.244 964.397L185.383 962.592L183.578 963.453L138.449 984.979Z" fill="#58BE56" stroke="black" stroke-width="4"/>
<rect x="91.5147" y="1007.37" width="54" height="54" transform="rotate(-25.5005 91.5147 1007.37)" fill="#58BE56" stroke="black" stroke-width="4"/>
<mask id="path-61-outside-13_6_71" maskUnits="userSpaceOnUse" x="22.6241" y="958.751" width="76.8893" height="76.4172" fill="black">
<rect fill="white" x="22.6241" y="958.751" width="76.8893" height="76.4172"/>
<path d="M27.5259 984.707L72.655 963.181L94.1809 1008.31L49.0519 1029.84L27.5259 984.707Z"/>
</mask>
<path d="M27.5259 984.707L72.655 963.181L94.1809 1008.31L49.0519 1029.84L27.5259 984.707Z" fill="white"/>
<path d="M27.5259 984.707L26.2344 981.999L22.6241 983.721L23.9156 986.429L27.5259 984.707ZM72.655 963.181L76.2654 961.459L74.9738 958.751L71.3635 960.473L72.655 963.181ZM94.1809 1008.31L95.903 1011.92L99.5133 1010.2L97.7913 1006.59L94.1809 1008.31ZM49.0519 1029.84L45.4415 1031.56L47.1636 1035.17L50.7739 1033.45L49.0519 1029.84ZM28.8175 987.415L73.9466 965.889L71.3635 960.473L26.2344 981.999L28.8175 987.415ZM69.0447 964.903L90.5706 1010.03L97.7913 1006.59L76.2654 961.459L69.0447 964.903ZM92.4589 1004.7L47.3298 1026.23L50.7739 1033.45L95.903 1011.92L92.4589 1004.7ZM52.6622 1028.11L31.1363 982.985L23.9156 986.429L45.4415 1031.56L52.6622 1028.11Z" fill="black" mask="url(#path-61-outside-13_6_71)"/>
<mask id="path-63-outside-14_6_71" maskUnits="userSpaceOnUse" x="112.882" y="915.699" width="76.8893" height="76.4172" fill="black">
<rect fill="white" x="112.882" y="915.699" width="76.8893" height="76.4172"/>
<path d="M117.784 941.655L162.913 920.129L184.439 965.258L139.31 986.784L117.784 941.655Z"/>
</mask>
<path d="M117.784 941.655L162.913 920.129L184.439 965.258L139.31 986.784L117.784 941.655Z" fill="#58BE56"/>
<path d="M117.784 941.655L116.493 938.947L112.882 940.669L114.174 943.377L117.784 941.655ZM162.913 920.129L166.524 918.407L165.232 915.699L161.622 917.421L162.913 920.129ZM184.439 965.258L186.161 968.869L189.772 967.146L188.049 963.536L184.439 965.258ZM139.31 986.784L135.7 988.506L137.422 992.117L141.032 990.394L139.31 986.784ZM119.076 944.363L164.205 922.837L161.622 917.421L116.493 938.947L119.076 944.363ZM159.303 921.851L180.829 966.98L188.049 963.536L166.524 918.407L159.303 921.851ZM182.717 961.648L137.588 983.174L141.032 990.394L186.161 968.869L182.717 961.648ZM142.92 985.062L121.394 939.933L114.174 943.377L135.7 988.506L142.92 985.062Z" fill="black" mask="url(#path-63-outside-14_6_71)"/>
<mask id="path-65-outside-15_6_71" maskUnits="userSpaceOnUse" x="67.7531" y="937.225" width="76.8893" height="76.4172" fill="black">
<rect fill="white" x="67.7531" y="937.225" width="76.8893" height="76.4172"/>
<path d="M72.655 963.181L117.784 941.655L139.31 986.784L94.1809 1008.31L72.655 963.181Z"/>
</mask>
<path d="M72.655 963.181L117.784 941.655L139.31 986.784L94.1809 1008.31L72.655 963.181Z" fill="#FFE600"/>
<path d="M72.655 963.181L71.3635 960.473L67.7531 962.195L69.0447 964.903L72.655 963.181ZM117.784 941.655L121.394 939.933L120.103 937.225L116.493 938.947L117.784 941.655ZM139.31 986.784L141.032 990.394L144.642 988.672L142.92 985.062L139.31 986.784ZM94.1809 1008.31L90.5706 1010.03L92.2927 1013.64L95.903 1011.92L94.1809 1008.31ZM73.9466 965.889L119.076 944.363L116.493 938.947L71.3635 960.473L73.9466 965.889ZM114.174 943.377L135.7 988.506L142.92 985.062L121.394 939.933L114.174 943.377ZM137.588 983.174L92.4589 1004.7L95.903 1011.92L141.032 990.394L137.588 983.174ZM97.7913 1006.59L76.2654 961.459L69.0447 964.903L90.5706 1010.03L97.7913 1006.59Z" fill="black" mask="url(#path-65-outside-15_6_71)"/>
</g>
<g opacity="0.25">
<rect x="-4.66585" y="62.9255" width="157" height="157" rx="25.5" transform="rotate(-25.5005 -4.66585 62.9255)" fill="#D9D9D9" stroke="black" stroke-width="7"/>
<path d="M46.9343 42.1908L46.0732 40.3856L44.2681 41.2467L18.9958 53.3012C7.03219 59.0076 1.95979 73.332 7.66624 85.2956L19.7207 110.568L20.5818 112.373L22.3869 111.512L67.516 89.9861L69.3212 89.125L68.4602 87.3199L46.9343 42.1908Z" fill="white" stroke="black" stroke-width="4"/>
<path d="M89.3971 19.7207L87.592 20.5818L88.453 22.3869L109.979 67.516L110.84 69.3212L112.645 68.4602L157.774 46.9343L159.579 46.0732L158.718 44.2681L146.664 18.9958C140.957 7.03219 126.633 1.95979 114.669 7.66624L89.3971 19.7207Z" fill="white" stroke="black" stroke-width="4"/>
<rect x="42.4629" y="42.1077" width="54" height="54" transform="rotate(-25.5005 42.4629 42.1077)" fill="white" stroke="black" stroke-width="4"/>
<path d="M42.1908 153.031L40.3856 153.892L41.2467 155.697L53.3012 180.969C59.0076 192.933 73.332 198.005 85.2956 192.299L110.568 180.244L112.373 179.383L111.512 177.578L89.9861 132.449L89.125 130.644L87.3199 131.505L42.1908 153.031Z" fill="#58BE56" stroke="black" stroke-width="4"/>
<path d="M132.449 109.979L130.644 110.84L131.505 112.645L153.031 157.774L153.892 159.579L155.697 158.718L180.969 146.664C192.933 140.957 198.005 126.633 192.299 114.669L180.244 89.3971L179.383 87.592L177.578 88.453L132.449 109.979Z" fill="#58BE56" stroke="black" stroke-width="4"/>
<rect x="85.5147" y="132.366" width="54" height="54" transform="rotate(-25.5005 85.5147 132.366)" fill="#58BE56" stroke="black" stroke-width="4"/>
<mask id="path-74-outside-16_6_71" maskUnits="userSpaceOnUse" x="16.6241" y="83.7511" width="76.8893" height="76.4172" fill="black">
<rect fill="white" x="16.6241" y="83.7511" width="76.8893" height="76.4172"/>
<path d="M21.5259 109.707L66.655 88.1809L88.1809 133.31L43.0519 154.836L21.5259 109.707Z"/>
</mask>
<path d="M21.5259 109.707L66.655 88.1809L88.1809 133.31L43.0519 154.836L21.5259 109.707Z" fill="white"/>
<path d="M21.5259 109.707L20.2344 106.999L16.6241 108.721L17.9156 111.429L21.5259 109.707ZM66.655 88.1809L70.2654 86.4588L68.9738 83.7511L65.3635 85.4732L66.655 88.1809ZM88.1809 133.31L89.903 136.92L93.5133 135.198L91.7913 131.588L88.1809 133.31ZM43.0519 154.836L39.4415 156.558L41.1636 160.168L44.7739 158.446L43.0519 154.836ZM22.8175 112.415L67.9466 90.8887L65.3635 85.4732L20.2344 106.999L22.8175 112.415ZM63.0447 89.903L84.5706 135.032L91.7913 131.588L70.2654 86.4588L63.0447 89.903ZM86.4589 129.7L41.3298 151.226L44.7739 158.446L89.903 136.92L86.4589 129.7ZM46.6622 153.114L25.1363 107.985L17.9156 111.429L39.4415 156.558L46.6622 153.114Z" fill="black" mask="url(#path-74-outside-16_6_71)"/>
<mask id="path-76-outside-17_6_71" maskUnits="userSpaceOnUse" x="106.882" y="40.6993" width="76.8893" height="76.4172" fill="black">
<rect fill="white" x="106.882" y="40.6993" width="76.8893" height="76.4172"/>
<path d="M111.784 66.655L156.913 45.1291L178.439 90.2582L133.31 111.784L111.784 66.655Z"/>
</mask>
<path d="M111.784 66.655L156.913 45.1291L178.439 90.2582L133.31 111.784L111.784 66.655Z" fill="#58BE56"/>
<path d="M111.784 66.655L110.493 63.9473L106.882 65.6693L108.174 68.3771L111.784 66.655ZM156.913 45.1291L160.524 43.407L159.232 40.6993L155.622 42.4213L156.913 45.1291ZM178.439 90.2582L180.161 93.8685L183.772 92.1464L182.049 88.5361L178.439 90.2582ZM133.31 111.784L129.7 113.506L131.422 117.116L135.032 115.394L133.31 111.784ZM113.076 69.3627L158.205 47.8368L155.622 42.4213L110.493 63.9473L113.076 69.3627ZM153.303 46.8512L174.829 91.9803L182.049 88.5361L160.524 43.407L153.303 46.8512ZM176.717 86.6479L131.588 108.174L135.032 115.394L180.161 93.8685L176.717 86.6479ZM136.92 110.062L115.394 64.9329L108.174 68.3771L129.7 113.506L136.92 110.062Z" fill="black" mask="url(#path-76-outside-17_6_71)"/>
<mask id="path-78-outside-18_6_71" maskUnits="userSpaceOnUse" x="61.7531" y="62.2252" width="76.8893" height="76.4172" fill="black">
<rect fill="white" x="61.7531" y="62.2252" width="76.8893" height="76.4172"/>
<path d="M66.655 88.1809L111.784 66.655L133.31 111.784L88.1809 133.31L66.655 88.1809Z"/>
</mask>
<path d="M66.655 88.1809L111.784 66.655L133.31 111.784L88.1809 133.31L66.655 88.1809Z" fill="#FFE600"/>
<path d="M66.655 88.1809L65.3635 85.4732L61.7531 87.1952L63.0447 89.903L66.655 88.1809ZM111.784 66.655L115.394 64.9329L114.103 62.2252L110.493 63.9473L111.784 66.655ZM133.31 111.784L135.032 115.394L138.642 113.672L136.92 110.062L133.31 111.784ZM88.1809 133.31L84.5706 135.032L86.2927 138.642L89.903 136.92L88.1809 133.31ZM67.9466 90.8887L113.076 69.3627L110.493 63.9473L65.3635 85.4732L67.9466 90.8887ZM108.174 68.3771L129.7 113.506L136.92 110.062L115.394 64.9329L108.174 68.3771ZM131.588 108.174L86.4589 129.7L89.903 136.92L135.032 115.394L131.588 108.174ZM91.7913 131.588L70.2654 86.4588L63.0447 89.903L84.5706 135.032L91.7913 131.588Z" fill="black" mask="url(#path-78-outside-18_6_71)"/>
</g>
<g opacity="0.25">
<rect x="1597.47" y="742.492" width="157" height="157" rx="25.5" transform="rotate(26.8757 1597.47 742.492)" fill="#D9D9D9" stroke="black" stroke-width="7"/>
<path d="M1645.39 770.704L1646.29 768.92L1644.51 768.015L1619.53 755.358C1607.71 749.366 1593.27 754.093 1587.28 765.916L1574.62 790.892L1573.71 792.676L1575.5 793.58L1620.1 816.183L1621.88 817.087L1622.79 815.303L1645.39 770.704Z" fill="white" stroke="black" stroke-width="4"/>
<path d="M1689.11 790.618L1687.32 789.714L1686.42 791.498L1663.82 836.098L1662.91 837.882L1664.7 838.786L1709.3 861.389L1711.08 862.293L1711.98 860.509L1724.64 835.533C1730.63 823.71 1725.91 809.268 1714.08 803.276L1689.11 790.618Z" fill="white" stroke="black" stroke-width="4"/>
<rect x="1642.72" y="767.111" width="54" height="54" transform="rotate(26.8757 1642.72 767.111)" fill="white" stroke="black" stroke-width="4"/>
<path d="M1554.7 834.611L1552.92 833.707L1552.02 835.491L1539.36 860.467C1533.37 872.29 1538.09 886.732 1549.92 892.724L1574.89 905.382L1576.68 906.286L1577.58 904.502L1600.18 859.902L1601.09 858.118L1599.3 857.214L1554.7 834.611Z" fill="#58BE56" stroke="black" stroke-width="4"/>
<path d="M1643.9 879.817L1642.12 878.913L1641.21 880.697L1618.61 925.296L1617.71 927.08L1619.49 927.985L1644.47 940.642C1656.29 946.634 1670.73 941.907 1676.72 930.084L1689.38 905.108L1690.29 903.324L1688.5 902.42L1643.9 879.817Z" fill="#58BE56" stroke="black" stroke-width="4"/>
<rect x="1597.52" y="856.31" width="54" height="54" transform="rotate(26.8757 1597.52 856.31)" fill="#58BE56" stroke="black" stroke-width="4"/>
<mask id="path-87-outside-19_6_71" maskUnits="userSpaceOnUse" x="1548.42" y="787.312" width="77.5026" height="77.0627" fill="black">
<rect fill="white" x="1548.42" y="787.312" width="77.5026" height="77.0627"/>
<path d="M1576.4 791.796L1621 814.399L1598.4 858.998L1553.8 836.395L1576.4 791.796Z"/>
</mask>
<path d="M1576.4 791.796L1621 814.399L1598.4 858.998L1553.8 836.395L1576.4 791.796Z" fill="white"/>
<path d="M1576.4 791.796L1577.76 789.12L1574.19 787.312L1572.83 789.988L1576.4 791.796ZM1621 814.399L1624.57 816.207L1625.93 813.531L1622.36 811.723L1621 814.399ZM1598.4 858.998L1596.59 862.566L1600.16 864.374L1601.97 860.806L1598.4 858.998ZM1553.8 836.395L1550.23 834.587L1548.42 838.155L1551.99 839.963L1553.8 836.395ZM1575.05 794.472L1619.65 817.075L1622.36 811.723L1577.76 789.12L1575.05 794.472ZM1617.43 812.591L1594.83 857.19L1601.97 860.806L1624.57 816.207L1617.43 812.591ZM1600.21 855.43L1555.61 832.827L1551.99 839.963L1596.59 862.566L1600.21 855.43ZM1557.37 838.204L1579.97 793.604L1572.83 789.988L1550.23 834.587L1557.37 838.204Z" fill="black" mask="url(#path-87-outside-19_6_71)"/>
<mask id="path-89-outside-20_6_71" maskUnits="userSpaceOnUse" x="1637.62" y="832.518" width="77.5026" height="77.0627" fill="black">
<rect fill="white" x="1637.62" y="832.518" width="77.5026" height="77.0627"/>
<path d="M1665.6 837.002L1710.2 859.605L1687.6 904.204L1643 881.601L1665.6 837.002Z"/>
</mask>
<path d="M1665.6 837.002L1710.2 859.605L1687.6 904.204L1643 881.601L1665.6 837.002Z" fill="#58BE56"/>
<path d="M1665.6 837.002L1666.96 834.326L1663.39 832.518L1662.03 835.193L1665.6 837.002ZM1710.2 859.605L1713.77 861.413L1715.12 858.737L1711.56 856.929L1710.2 859.605ZM1687.6 904.204L1685.79 907.772L1689.36 909.58L1691.17 906.012L1687.6 904.204ZM1643 881.601L1639.43 879.793L1637.62 883.361L1641.19 885.169L1643 881.601ZM1664.24 839.678L1708.84 862.281L1711.56 856.929L1666.96 834.326L1664.24 839.678ZM1706.63 857.796L1684.03 902.396L1691.17 906.012L1713.77 861.413L1706.63 857.796ZM1689.41 900.636L1644.81 878.033L1641.19 885.169L1685.79 907.772L1689.41 900.636ZM1646.57 883.409L1669.17 838.81L1662.03 835.193L1639.43 879.793L1646.57 883.409Z" fill="black" mask="url(#path-89-outside-20_6_71)"/>
<mask id="path-91-outside-21_6_71" maskUnits="userSpaceOnUse" x="1593.02" y="809.915" width="77.5026" height="77.0627" fill="black">
<rect fill="white" x="1593.02" y="809.915" width="77.5026" height="77.0627"/>
<path d="M1621 814.399L1665.6 837.002L1643 881.601L1598.4 858.998L1621 814.399Z"/>
</mask>
<path d="M1621 814.399L1665.6 837.002L1643 881.601L1598.4 858.998L1621 814.399Z" fill="#FFE600"/>
<path d="M1621 814.399L1622.36 811.723L1618.79 809.915L1617.43 812.591L1621 814.399ZM1665.6 837.002L1669.17 838.81L1670.53 836.134L1666.96 834.326L1665.6 837.002ZM1643 881.601L1641.19 885.169L1644.76 886.977L1646.57 883.409L1643 881.601ZM1598.4 858.998L1594.83 857.19L1593.02 860.758L1596.59 862.566L1598.4 858.998ZM1619.65 817.075L1664.24 839.678L1666.96 834.326L1622.36 811.723L1619.65 817.075ZM1662.03 835.193L1639.43 879.793L1646.57 883.409L1669.17 838.81L1662.03 835.193ZM1644.81 878.033L1600.21 855.43L1596.59 862.566L1641.19 885.169L1644.81 878.033ZM1601.97 860.807L1624.57 816.207L1617.43 812.591L1594.83 857.19L1601.97 860.807Z" fill="black" mask="url(#path-91-outside-21_6_71)"/>
</g>
<g opacity="0.25">
<rect x="1225.16" y="402.746" width="157" height="157" rx="25.5" transform="rotate(-25.5005 1225.16 402.746)" fill="#D9D9D9" stroke="black" stroke-width="7"/>
<path d="M1276.76 382.012L1275.89 380.207L1274.09 381.068L1248.82 393.122C1236.85 398.829 1231.78 413.153 1237.49 425.117L1249.54 450.389L1250.4 452.194L1252.21 451.333L1297.34 429.807L1299.14 428.946L1298.28 427.141L1276.76 382.012Z" fill="white" stroke="black" stroke-width="4"/>
<path d="M1319.22 359.542L1317.41 360.403L1318.27 362.208L1339.8 407.337L1340.66 409.142L1342.47 408.281L1387.6 386.755L1389.4 385.894L1388.54 384.089L1376.48 358.817C1370.78 346.853 1356.45 341.781 1344.49 347.487L1319.22 359.542Z" fill="white" stroke="black" stroke-width="4"/>
<rect x="1272.28" y="381.929" width="54" height="54" transform="rotate(-25.5005 1272.28 381.929)" fill="white" stroke="black" stroke-width="4"/>
<path d="M1272.01 492.852L1270.21 493.713L1271.07 495.518L1283.12 520.79C1288.83 532.754 1303.15 537.826 1315.12 532.12L1340.39 520.065L1342.19 519.204L1341.33 517.399L1319.81 472.27L1318.95 470.465L1317.14 471.326L1272.01 492.852Z" fill="#58BE56" stroke="black" stroke-width="4"/>
<path d="M1362.27 449.8L1360.46 450.661L1361.33 452.466L1382.85 497.595L1383.71 499.4L1385.52 498.539L1410.79 486.485C1422.75 480.778 1427.83 466.454 1422.12 454.49L1410.07 429.218L1409.2 427.413L1407.4 428.274L1362.27 449.8Z" fill="#58BE56" stroke="black" stroke-width="4"/>
<rect x="1315.34" y="472.187" width="54" height="54" transform="rotate(-25.5005 1315.34 472.187)" fill="#58BE56" stroke="black" stroke-width="4"/>
<mask id="path-100-outside-22_6_71" maskUnits="userSpaceOnUse" x="1246.44" y="423.572" width="76.8893" height="76.4172" fill="black">
<rect fill="white" x="1246.44" y="423.572" width="76.8893" height="76.4172"/>
<path d="M1251.35 449.528L1296.48 428.002L1318 473.131L1272.87 494.657L1251.35 449.528Z"/>
</mask>
<path d="M1251.35 449.528L1296.48 428.002L1318 473.131L1272.87 494.657L1251.35 449.528Z" fill="white"/>
<path d="M1251.35 449.528L1250.06 446.82L1246.44 448.542L1247.74 451.25L1251.35 449.528ZM1296.48 428.002L1300.09 426.28L1298.79 423.572L1295.18 425.294L1296.48 428.002ZM1318 473.131L1319.72 476.741L1323.33 475.019L1321.61 471.409L1318 473.131ZM1272.87 494.657L1269.26 496.379L1270.98 499.989L1274.59 498.267L1272.87 494.657ZM1252.64 452.236L1297.77 430.71L1295.18 425.294L1250.06 446.82L1252.64 452.236ZM1292.87 429.724L1314.39 474.853L1321.61 471.409L1300.09 426.28L1292.87 429.724ZM1316.28 469.521L1271.15 491.047L1274.59 498.267L1319.72 476.741L1316.28 469.521ZM1276.48 492.935L1254.96 447.806L1247.74 451.25L1269.26 496.379L1276.48 492.935Z" fill="black" mask="url(#path-100-outside-22_6_71)"/>
<mask id="path-102-outside-23_6_71" maskUnits="userSpaceOnUse" x="1336.7" y="380.52" width="76.8893" height="76.4172" fill="black">
<rect fill="white" x="1336.7" y="380.52" width="76.8893" height="76.4172"/>
<path d="M1341.61 406.476L1386.73 384.95L1408.26 430.079L1363.13 451.605L1341.61 406.476Z"/>
</mask>
<path d="M1341.61 406.476L1386.73 384.95L1408.26 430.079L1363.13 451.605L1341.61 406.476Z" fill="#58BE56"/>
<path d="M1341.61 406.476L1340.31 403.768L1336.7 405.49L1337.99 408.198L1341.61 406.476ZM1386.73 384.95L1390.34 383.228L1389.05 380.52L1385.44 382.242L1386.73 384.95ZM1408.26 430.079L1409.98 433.689L1413.59 431.967L1411.87 428.357L1408.26 430.079ZM1363.13 451.605L1359.52 453.327L1361.24 456.937L1364.85 455.215L1363.13 451.605ZM1342.9 409.184L1388.03 387.658L1385.44 382.242L1340.31 403.768L1342.9 409.184ZM1383.12 386.672L1404.65 431.801L1411.87 428.357L1390.34 383.228L1383.12 386.672ZM1406.54 426.469L1361.41 447.995L1364.85 455.215L1409.98 433.689L1406.54 426.469ZM1366.74 449.883L1345.22 404.754L1337.99 408.198L1359.52 453.327L1366.74 449.883Z" fill="black" mask="url(#path-102-outside-23_6_71)"/>
<mask id="path-104-outside-24_6_71" maskUnits="userSpaceOnUse" x="1291.57" y="402.046" width="76.8893" height="76.4172" fill="black">
<rect fill="white" x="1291.57" y="402.046" width="76.8893" height="76.4172"/>
<path d="M1296.48 428.002L1341.61 406.476L1363.13 451.605L1318 473.131L1296.48 428.002Z"/>
</mask>
<path d="M1296.48 428.002L1341.61 406.476L1363.13 451.605L1318 473.131L1296.48 428.002Z" fill="#FFE600"/>
<path d="M1296.48 428.002L1295.18 425.294L1291.57 427.016L1292.87 429.724L1296.48 428.002ZM1341.61 406.476L1345.22 404.754L1343.92 402.046L1340.31 403.768L1341.61 406.476ZM1363.13 451.605L1364.85 455.215L1368.46 453.493L1366.74 449.883L1363.13 451.605ZM1318 473.131L1314.39 474.853L1316.11 478.463L1319.72 476.741L1318 473.131ZM1297.77 430.71L1342.9 409.184L1340.31 403.768L1295.18 425.294L1297.77 430.71ZM1337.99 408.198L1359.52 453.327L1366.74 449.883L1345.22 404.754L1337.99 408.198ZM1361.41 447.995L1316.28 469.521L1319.72 476.741L1364.85 455.215L1361.41 447.995ZM1321.61 471.409L1300.09 426.28L1292.87 429.724L1314.39 474.853L1321.61 471.409Z" fill="black" mask="url(#path-104-outside-24_6_71)"/>
</g>
<g opacity="0.25">
<rect x="1439.33" y="147.926" width="157" height="157" rx="25.5" transform="rotate(-25.5005 1439.33 147.926)" fill="#D9D9D9" stroke="black" stroke-width="7"/>
<path d="M1490.93 127.191L1490.07 125.386L1488.27 126.247L1463 138.301C1451.03 144.008 1445.96 158.332 1451.67 170.296L1463.72 195.568L1464.58 197.373L1466.39 196.512L1511.52 174.986L1513.32 174.125L1512.46 172.32L1490.93 127.191Z" fill="white" stroke="black" stroke-width="4"/>
<path d="M1533.4 104.721L1531.59 105.582L1532.45 107.387L1553.98 152.516L1554.84 154.321L1556.65 153.46L1601.77 131.934L1603.58 131.073L1602.72 129.268L1590.66 103.996C1584.96 92.0322 1570.63 86.9598 1558.67 92.6662L1533.4 104.721Z" fill="white" stroke="black" stroke-width="4"/>
<rect x="1486.46" y="127.108" width="54" height="54" transform="rotate(-25.5005 1486.46 127.108)" fill="white" stroke="black" stroke-width="4"/>
<path d="M1486.19 238.031L1484.39 238.892L1485.25 240.697L1497.3 265.969C1503.01 277.933 1517.33 283.005 1529.3 277.299L1554.57 265.244L1556.37 264.383L1555.51 262.578L1533.99 217.449L1533.13 215.644L1531.32 216.505L1486.19 238.031Z" fill="#58BE56" stroke="black" stroke-width="4"/>
<path d="M1576.45 194.979L1574.64 195.84L1575.5 197.645L1597.03 242.774L1597.89 244.579L1599.7 243.718L1624.97 231.664C1636.93 225.957 1642.01 211.633 1636.3 199.669L1624.24 174.397L1623.38 172.592L1621.58 173.453L1576.45 194.979Z" fill="#58BE56" stroke="black" stroke-width="4"/>
<rect x="1529.51" y="217.366" width="54" height="54" transform="rotate(-25.5005 1529.51 217.366)" fill="#58BE56" stroke="black" stroke-width="4"/>
<mask id="path-113-outside-25_6_71" maskUnits="userSpaceOnUse" x="1460.62" y="168.751" width="76.8893" height="76.4172" fill="black">
<rect fill="white" x="1460.62" y="168.751" width="76.8893" height="76.4172"/>
<path d="M1465.53 194.707L1510.66 173.181L1532.18 218.31L1487.05 239.836L1465.53 194.707Z"/>
</mask>
<path d="M1465.53 194.707L1510.66 173.181L1532.18 218.31L1487.05 239.836L1465.53 194.707Z" fill="white"/>
<path d="M1465.53 194.707L1464.23 191.999L1460.62 193.721L1461.92 196.429L1465.53 194.707ZM1510.66 173.181L1514.27 171.459L1512.97 168.751L1509.36 170.473L1510.66 173.181ZM1532.18 218.31L1533.9 221.92L1537.51 220.198L1535.79 216.588L1532.18 218.31ZM1487.05 239.836L1483.44 241.558L1485.16 245.168L1488.77 243.446L1487.05 239.836ZM1466.82 197.415L1511.95 175.889L1509.36 170.473L1464.23 191.999L1466.82 197.415ZM1507.04 174.903L1528.57 220.032L1535.79 216.588L1514.27 171.459L1507.04 174.903ZM1530.46 214.7L1485.33 236.226L1488.77 243.446L1533.9 221.92L1530.46 214.7ZM1490.66 238.114L1469.14 192.985L1461.92 196.429L1483.44 241.558L1490.66 238.114Z" fill="black" mask="url(#path-113-outside-25_6_71)"/>
<mask id="path-115-outside-26_6_71" maskUnits="userSpaceOnUse" x="1550.88" y="125.699" width="76.8893" height="76.4172" fill="black">
<rect fill="white" x="1550.88" y="125.699" width="76.8893" height="76.4172"/>
<path d="M1555.78 151.655L1600.91 130.129L1622.44 175.258L1577.31 196.784L1555.78 151.655Z"/>
</mask>
<path d="M1555.78 151.655L1600.91 130.129L1622.44 175.258L1577.31 196.784L1555.78 151.655Z" fill="#58BE56"/>
<path d="M1555.78 151.655L1554.49 148.947L1550.88 150.669L1552.17 153.377L1555.78 151.655ZM1600.91 130.129L1604.52 128.407L1603.23 125.699L1599.62 127.421L1600.91 130.129ZM1622.44 175.258L1624.16 178.869L1627.77 177.146L1626.05 173.536L1622.44 175.258ZM1577.31 196.784L1573.7 198.506L1575.42 202.116L1579.03 200.394L1577.31 196.784ZM1557.08 154.363L1602.2 132.837L1599.62 127.421L1554.49 148.947L1557.08 154.363ZM1597.3 131.851L1618.83 176.98L1626.05 173.536L1604.52 128.407L1597.3 131.851ZM1620.72 171.648L1575.59 193.174L1579.03 200.394L1624.16 178.869L1620.72 171.648ZM1580.92 195.062L1559.39 149.933L1552.17 153.377L1573.7 198.506L1580.92 195.062Z" fill="black" mask="url(#path-115-outside-26_6_71)"/>
<mask id="path-117-outside-27_6_71" maskUnits="userSpaceOnUse" x="1505.75" y="147.225" width="76.8893" height="76.4172" fill="black">
<rect fill="white" x="1505.75" y="147.225" width="76.8893" height="76.4172"/>
<path d="M1510.66 173.181L1555.78 151.655L1577.31 196.784L1532.18 218.31L1510.66 173.181Z"/>
</mask>
<path d="M1510.66 173.181L1555.78 151.655L1577.31 196.784L1532.18 218.31L1510.66 173.181Z" fill="#FFE600"/>
<path d="M1510.66 173.181L1509.36 170.473L1505.75 172.195L1507.04 174.903L1510.66 173.181ZM1555.78 151.655L1559.39 149.933L1558.1 147.225L1554.49 148.947L1555.78 151.655ZM1577.31 196.784L1579.03 200.394L1582.64 198.672L1580.92 195.062L1577.31 196.784ZM1532.18 218.31L1528.57 220.032L1530.29 223.642L1533.9 221.92L1532.18 218.31ZM1511.95 175.889L1557.08 154.363L1554.49 148.947L1509.36 170.473L1511.95 175.889ZM1552.17 153.377L1573.7 198.506L1580.92 195.062L1559.39 149.933L1552.17 153.377ZM1575.59 193.174L1530.46 214.7L1533.9 221.92L1579.03 200.394L1575.59 193.174ZM1535.79 216.588L1514.27 171.459L1507.04 174.903L1528.57 220.032L1535.79 216.588Z" fill="black" mask="url(#path-117-outside-27_6_71)"/>
</g>
<g opacity="0.25">
<rect x="561.334" y="202.926" width="157" height="157" rx="25.5" transform="rotate(-25.5005 561.334 202.926)" fill="#D9D9D9" stroke="black" stroke-width="7"/>
<path d="M612.934 182.191L612.073 180.386L610.268 181.247L584.996 193.301C573.032 199.008 567.96 213.332 573.666 225.296L585.721 250.568L586.582 252.373L588.387 251.512L633.516 229.986L635.321 229.125L634.46 227.32L612.934 182.191Z" fill="white" stroke="black" stroke-width="4"/>
<path d="M655.397 159.721L653.592 160.582L654.453 162.387L675.979 207.516L676.84 209.321L678.645 208.46L723.774 186.934L725.579 186.073L724.718 184.268L712.664 158.996C706.957 147.032 692.633 141.96 680.669 147.666L655.397 159.721Z" fill="white" stroke="black" stroke-width="4"/>
<rect x="608.463" y="182.108" width="54" height="54" transform="rotate(-25.5005 608.463 182.108)" fill="white" stroke="black" stroke-width="4"/>
<path d="M608.191 293.031L606.386 293.892L607.247 295.697L619.301 320.969C625.008 332.933 639.332 338.005 651.296 332.299L676.568 320.244L678.373 319.383L677.512 317.578L655.986 272.449L655.125 270.644L653.32 271.505L608.191 293.031Z" fill="#58BE56" stroke="black" stroke-width="4"/>
<path d="M698.449 249.979L696.644 250.84L697.505 252.645L719.031 297.774L719.892 299.579L721.697 298.718L746.969 286.664C758.933 280.957 764.005 266.633 758.299 254.669L746.244 229.397L745.383 227.592L743.578 228.453L698.449 249.979Z" fill="#58BE56" stroke="black" stroke-width="4"/>
<rect x="651.515" y="272.366" width="54" height="54" transform="rotate(-25.5005 651.515 272.366)" fill="#58BE56" stroke="black" stroke-width="4"/>
<mask id="path-126-outside-28_6_71" maskUnits="userSpaceOnUse" x="582.624" y="223.751" width="76.8893" height="76.4172" fill="black">
<rect fill="white" x="582.624" y="223.751" width="76.8893" height="76.4172"/>
<path d="M587.526 249.707L632.655 228.181L654.181 273.31L609.052 294.836L587.526 249.707Z"/>
</mask>
<path d="M587.526 249.707L632.655 228.181L654.181 273.31L609.052 294.836L587.526 249.707Z" fill="white"/>
<path d="M587.526 249.707L586.234 246.999L582.624 248.721L583.916 251.429L587.526 249.707ZM632.655 228.181L636.265 226.459L634.974 223.751L631.363 225.473L632.655 228.181ZM654.181 273.31L655.903 276.92L659.513 275.198L657.791 271.588L654.181 273.31ZM609.052 294.836L605.441 296.558L607.164 300.168L610.774 298.446L609.052 294.836ZM588.817 252.415L633.947 230.889L631.363 225.473L586.234 246.999L588.817 252.415ZM629.045 229.903L650.571 275.032L657.791 271.588L636.265 226.459L629.045 229.903ZM652.459 269.7L607.33 291.226L610.774 298.446L655.903 276.92L652.459 269.7ZM612.662 293.114L591.136 247.985L583.916 251.429L605.441 296.558L612.662 293.114Z" fill="black" mask="url(#path-126-outside-28_6_71)"/>
<mask id="path-128-outside-29_6_71" maskUnits="userSpaceOnUse" x="672.882" y="180.699" width="76.8893" height="76.4172" fill="black">
<rect fill="white" x="672.882" y="180.699" width="76.8893" height="76.4172"/>
<path d="M677.784 206.655L722.913 185.129L744.439 230.258L699.31 251.784L677.784 206.655Z"/>
</mask>
<path d="M677.784 206.655L722.913 185.129L744.439 230.258L699.31 251.784L677.784 206.655Z" fill="#58BE56"/>
<path d="M677.784 206.655L676.493 203.947L672.882 205.669L674.174 208.377L677.784 206.655ZM722.913 185.129L726.524 183.407L725.232 180.699L721.622 182.421L722.913 185.129ZM744.439 230.258L746.161 233.869L749.772 232.146L748.049 228.536L744.439 230.258ZM699.31 251.784L695.7 253.506L697.422 257.116L701.032 255.394L699.31 251.784ZM679.076 209.363L724.205 187.837L721.622 182.421L676.493 203.947L679.076 209.363ZM719.303 186.851L740.829 231.98L748.049 228.536L726.524 183.407L719.303 186.851ZM742.717 226.648L697.588 248.174L701.032 255.394L746.161 233.869L742.717 226.648ZM702.92 250.062L681.394 204.933L674.174 208.377L695.7 253.506L702.92 250.062Z" fill="black" mask="url(#path-128-outside-29_6_71)"/>
<mask id="path-130-outside-30_6_71" maskUnits="userSpaceOnUse" x="627.753" y="202.225" width="76.8893" height="76.4172" fill="black">
<rect fill="white" x="627.753" y="202.225" width="76.8893" height="76.4172"/>
<path d="M632.655 228.181L677.784 206.655L699.31 251.784L654.181 273.31L632.655 228.181Z"/>
</mask>
<path d="M632.655 228.181L677.784 206.655L699.31 251.784L654.181 273.31L632.655 228.181Z" fill="#FFE600"/>
<path d="M632.655 228.181L631.363 225.473L627.753 227.195L629.045 229.903L632.655 228.181ZM677.784 206.655L681.394 204.933L680.103 202.225L676.493 203.947L677.784 206.655ZM699.31 251.784L701.032 255.394L704.642 253.672L702.92 250.062L699.31 251.784ZM654.181 273.31L650.571 275.032L652.293 278.642L655.903 276.92L654.181 273.31ZM633.947 230.889L679.076 209.363L676.493 203.947L631.363 225.473L633.947 230.889ZM674.174 208.377L695.7 253.506L702.92 250.062L681.394 204.933L674.174 208.377ZM697.588 248.174L652.459 269.7L655.903 276.92L701.032 255.394L697.588 248.174ZM657.791 271.588L636.265 226.459L629.045 229.903L650.571 275.032L657.791 271.588Z" fill="black" mask="url(#path-130-outside-30_6_71)"/>
</g>
<g opacity="0.25">
<rect x="706.334" y="767.926" width="157" height="157" rx="25.5" transform="rotate(-25.5005 706.334 767.926)" fill="#D9D9D9" stroke="black" stroke-width="7"/>
<path d="M757.934 747.191L757.073 745.386L755.268 746.247L729.996 758.301C718.032 764.008 712.96 778.332 718.666 790.296L730.721 815.568L731.582 817.373L733.387 816.512L778.516 794.986L780.321 794.125L779.46 792.32L757.934 747.191Z" fill="white" stroke="black" stroke-width="4"/>
<path d="M800.397 724.721L798.592 725.582L799.453 727.387L820.979 772.516L821.84 774.321L823.645 773.46L868.774 751.934L870.579 751.073L869.718 749.268L857.664 723.996C851.957 712.032 837.633 706.96 825.669 712.666L800.397 724.721Z" fill="white" stroke="black" stroke-width="4"/>
<rect x="753.463" y="747.108" width="54" height="54" transform="rotate(-25.5005 753.463 747.108)" fill="white" stroke="black" stroke-width="4"/>
<path d="M753.191 858.031L751.386 858.892L752.247 860.697L764.301 885.969C770.008 897.933 784.332 903.005 796.296 897.299L821.568 885.244L823.373 884.383L822.512 882.578L800.986 837.449L800.125 835.644L798.32 836.505L753.191 858.031Z" fill="#58BE56" stroke="black" stroke-width="4"/>
<path d="M843.449 814.979L841.644 815.84L842.505 817.645L864.031 862.774L864.892 864.579L866.697 863.718L891.969 851.664C903.933 845.957 909.005 831.633 903.299 819.669L891.244 794.397L890.383 792.592L888.578 793.453L843.449 814.979Z" fill="#58BE56" stroke="black" stroke-width="4"/>
<rect x="796.515" y="837.366" width="54" height="54" transform="rotate(-25.5005 796.515 837.366)" fill="#58BE56" stroke="black" stroke-width="4"/>
<mask id="path-139-outside-31_6_71" maskUnits="userSpaceOnUse" x="727.624" y="788.751" width="76.8893" height="76.4172" fill="black">
<rect fill="white" x="727.624" y="788.751" width="76.8893" height="76.4172"/>
<path d="M732.526 814.707L777.655 793.181L799.181 838.31L754.052 859.836L732.526 814.707Z"/>
</mask>
<path d="M732.526 814.707L777.655 793.181L799.181 838.31L754.052 859.836L732.526 814.707Z" fill="white"/>
<path d="M732.526 814.707L731.234 811.999L727.624 813.721L728.916 816.429L732.526 814.707ZM777.655 793.181L781.265 791.459L779.974 788.751L776.363 790.473L777.655 793.181ZM799.181 838.31L800.903 841.92L804.513 840.198L802.791 836.588L799.181 838.31ZM754.052 859.836L750.441 861.558L752.164 865.168L755.774 863.446L754.052 859.836ZM733.817 817.415L778.947 795.889L776.363 790.473L731.234 811.999L733.817 817.415ZM774.045 794.903L795.571 840.032L802.791 836.588L781.265 791.459L774.045 794.903ZM797.459 834.7L752.33 856.226L755.774 863.446L800.903 841.92L797.459 834.7ZM757.662 858.114L736.136 812.985L728.916 816.429L750.441 861.558L757.662 858.114Z" fill="black" mask="url(#path-139-outside-31_6_71)"/>
<mask id="path-141-outside-32_6_71" maskUnits="userSpaceOnUse" x="817.882" y="745.699" width="76.8893" height="76.4172" fill="black">
<rect fill="white" x="817.882" y="745.699" width="76.8893" height="76.4172"/>
<path d="M822.784 771.655L867.913 750.129L889.439 795.258L844.31 816.784L822.784 771.655Z"/>
</mask>
<path d="M822.784 771.655L867.913 750.129L889.439 795.258L844.31 816.784L822.784 771.655Z" fill="#58BE56"/>
<path d="M822.784 771.655L821.493 768.947L817.882 770.669L819.174 773.377L822.784 771.655ZM867.913 750.129L871.524 748.407L870.232 745.699L866.622 747.421L867.913 750.129ZM889.439 795.258L891.161 798.869L894.772 797.146L893.049 793.536L889.439 795.258ZM844.31 816.784L840.7 818.506L842.422 822.117L846.032 820.394L844.31 816.784ZM824.076 774.363L869.205 752.837L866.622 747.421L821.493 768.947L824.076 774.363ZM864.303 751.851L885.829 796.98L893.049 793.536L871.524 748.407L864.303 751.851ZM887.717 791.648L842.588 813.174L846.032 820.394L891.161 798.869L887.717 791.648ZM847.92 815.062L826.394 769.933L819.174 773.377L840.7 818.506L847.92 815.062Z" fill="black" mask="url(#path-141-outside-32_6_71)"/>
<mask id="path-143-outside-33_6_71" maskUnits="userSpaceOnUse" x="772.753" y="767.225" width="76.8893" height="76.4172" fill="black">
<rect fill="white" x="772.753" y="767.225" width="76.8893" height="76.4172"/>
<path d="M777.655 793.181L822.784 771.655L844.31 816.784L799.181 838.31L777.655 793.181Z"/>
</mask>
<path d="M777.655 793.181L822.784 771.655L844.31 816.784L799.181 838.31L777.655 793.181Z" fill="#FFE600"/>
<path d="M777.655 793.181L776.363 790.473L772.753 792.195L774.045 794.903L777.655 793.181ZM822.784 771.655L826.394 769.933L825.103 767.225L821.493 768.947L822.784 771.655ZM844.31 816.784L846.032 820.394L849.642 818.672L847.92 815.062L844.31 816.784ZM799.181 838.31L795.571 840.032L797.293 843.642L800.903 841.92L799.181 838.31ZM778.947 795.889L824.076 774.363L821.493 768.947L776.363 790.473L778.947 795.889ZM819.174 773.377L840.7 818.506L847.92 815.062L826.394 769.933L819.174 773.377ZM842.588 813.174L797.459 834.7L800.903 841.92L846.032 820.394L842.588 813.174ZM802.791 836.588L781.265 791.459L774.045 794.903L795.571 840.032L802.791 836.588Z" fill="black" mask="url(#path-143-outside-33_6_71)"/>
</g>
<g opacity="0.25">
<rect x="281.269" y="563.296" width="157" height="157" rx="25.5" transform="rotate(26.8757 281.269 563.296)" fill="#D9D9D9" stroke="black" stroke-width="7"/>
<path d="M329.192 591.507L330.096 589.723L328.312 588.819L303.336 576.161C291.513 570.169 277.071 574.896 271.079 586.72L258.422 611.695L257.518 613.479L259.302 614.383L303.901 636.986L305.685 637.89L306.589 636.106L329.192 591.507Z" fill="white" stroke="black" stroke-width="4"/>
<path d="M372.912 611.422L371.128 610.518L370.223 612.302L347.621 656.901L346.717 658.685L348.501 659.589L393.1 682.192L394.884 683.096L395.788 681.312L408.446 656.336C414.438 644.513 409.71 630.071 397.887 624.079L372.912 611.422Z" fill="white" stroke="black" stroke-width="4"/>
<rect x="326.528" y="587.915" width="54" height="54" transform="rotate(26.8757 326.528 587.915)" fill="white" stroke="black" stroke-width="4"/>
<path d="M238.507 655.415L236.723 654.511L235.819 656.295L223.161 681.27C217.169 693.094 221.897 707.536 233.72 713.528L258.695 726.185L260.479 727.089L261.383 725.305L283.986 680.706L284.89 678.922L283.106 678.018L238.507 655.415Z" fill="#58BE56" stroke="black" stroke-width="4"/>
<path d="M327.706 700.621L325.922 699.717L325.018 701.5L302.415 746.1L301.511 747.884L303.295 748.788L328.27 761.446C340.094 767.438 354.536 762.71 360.528 750.887L373.185 725.912L374.089 724.128L372.305 723.223L327.706 700.621Z" fill="#58BE56" stroke="black" stroke-width="4"/>
<rect x="281.322" y="677.114" width="54" height="54" transform="rotate(26.8757 281.322 677.114)" fill="#58BE56" stroke="black" stroke-width="4"/>
<mask id="path-152-outside-34_6_71" maskUnits="userSpaceOnUse" x="232.227" y="608.115" width="77.5026" height="77.0627" fill="black">
<rect fill="white" x="232.227" y="608.115" width="77.5026" height="77.0627"/>
<path d="M260.206 612.599L304.805 635.202L282.202 679.802L237.603 657.199L260.206 612.599Z"/>
</mask>
<path d="M260.206 612.599L304.805 635.202L282.202 679.802L237.603 657.199L260.206 612.599Z" fill="white"/>
<path d="M260.206 612.599L261.562 609.923L257.994 608.115L256.638 610.791L260.206 612.599ZM304.805 635.202L308.373 637.011L309.729 634.335L306.161 632.526L304.805 635.202ZM282.202 679.802L280.394 683.37L283.962 685.178L285.77 681.61L282.202 679.802ZM237.603 657.199L234.035 655.391L232.227 658.959L235.795 660.767L237.603 657.199ZM258.85 615.275L303.449 637.878L306.161 632.526L261.562 609.923L258.85 615.275ZM301.237 633.394L278.634 677.994L285.77 681.61L308.373 637.011L301.237 633.394ZM284.011 676.234L239.411 653.631L235.795 660.767L280.394 683.37L284.011 676.234ZM241.171 659.007L263.774 614.408L256.638 610.791L234.035 655.391L241.171 659.007Z" fill="black" mask="url(#path-152-outside-34_6_71)"/>
<mask id="path-154-outside-35_6_71" maskUnits="userSpaceOnUse" x="321.426" y="653.321" width="77.5026" height="77.0627" fill="black">
<rect fill="white" x="321.426" y="653.321" width="77.5026" height="77.0627"/>
<path d="M349.405 657.805L394.004 680.408L371.401 725.007L326.802 702.405L349.405 657.805Z"/>
</mask>
<path d="M349.405 657.805L394.004 680.408L371.401 725.007L326.802 702.405L349.405 657.805Z" fill="#58BE56"/>
<path d="M349.405 657.805L350.761 655.129L347.193 653.321L345.837 655.997L349.405 657.805ZM394.004 680.408L397.572 682.216L398.928 679.54L395.36 677.732L394.004 680.408ZM371.401 725.007L369.593 728.575L373.161 730.384L374.969 726.816L371.401 725.007ZM326.802 702.405L323.234 700.596L321.426 704.164L324.994 705.973L326.802 702.405ZM348.048 660.481L392.648 683.084L395.36 677.732L350.761 655.129L348.048 660.481ZM390.436 678.6L367.833 723.199L374.969 726.816L397.572 682.216L390.436 678.6ZM373.209 721.44L328.61 698.837L324.994 705.973L369.593 728.575L373.209 721.44ZM330.37 704.213L352.973 659.613L345.837 655.997L323.234 700.596L330.37 704.213Z" fill="black" mask="url(#path-154-outside-35_6_71)"/>
<mask id="path-156-outside-36_6_71" maskUnits="userSpaceOnUse" x="276.826" y="630.718" width="77.5026" height="77.0627" fill="black">
<rect fill="white" x="276.826" y="630.718" width="77.5026" height="77.0627"/>
<path d="M304.805 635.202L349.405 657.805L326.802 702.405L282.202 679.802L304.805 635.202Z"/>
</mask>
<path d="M304.805 635.202L349.405 657.805L326.802 702.405L282.202 679.802L304.805 635.202Z" fill="#FFE600"/>
<path d="M304.805 635.202L306.161 632.526L302.593 630.718L301.237 633.394L304.805 635.202ZM349.405 657.805L352.973 659.613L354.329 656.937L350.761 655.129L349.405 657.805ZM326.802 702.405L324.994 705.973L328.561 707.781L330.37 704.213L326.802 702.405ZM282.202 679.802L278.634 677.994L276.826 681.562L280.394 683.37L282.202 679.802ZM303.449 637.878L348.048 660.481L350.761 655.129L306.161 632.526L303.449 637.878ZM345.837 655.997L323.234 700.596L330.37 704.213L352.973 659.613L345.837 655.997ZM328.61 698.837L284.011 676.234L280.394 683.37L324.994 705.973L328.61 698.837ZM285.77 681.61L308.373 637.011L301.237 633.394L278.634 677.994L285.77 681.61Z" fill="black" mask="url(#path-156-outside-36_6_71)"/>
</g>
</svg>
